<?xml version="1.0" encoding="UTF-8"?>
<!-- Generator: visioncortex VTracer 0.6.5 -->
<svg version="1.1" xmlns="http://www.w3.org/2000/svg" width="1023" height="640">
<path d="M0 0 C337.59 0 675.18 0 1023 0 C1023 211.2 1023 422.4 1023 640 C685.41 640 347.82 640 0 640 C0 428.8 0 217.6 0 0 Z " fill="#E2E2E2" transform="translate(0,0)"/>
<path d="M0 0 C337.59 0 675.18 0 1023 0 C1023 13.53 1023 27.06 1023 41 C703.23 41.33 383.46 41.66 54 42 C52.68 43.32 51.36 44.64 50 46 C50 228.16 50 410.32 50 598 C53.77 601.77 55.93 602.12 61.02 602.14 C61.55 602.14 61.55 602.14 64.19 602.16 C64.76 602.16 64.76 602.16 67.67 602.16 C68.91 602.16 70.14 602.17 71.37 602.17 C74.76 602.19 78.15 602.19 81.54 602.2 C85.2 602.21 88.85 602.22 92.51 602.24 C98.84 602.26 105.17 602.28 111.51 602.29 C120.66 602.31 129.82 602.34 138.98 602.37 C153.83 602.42 168.69 602.46 183.55 602.5 C197.98 602.54 212.41 602.58 226.85 602.63 C227.73 602.63 228.62 602.63 229.54 602.64 C234 602.65 238.46 602.66 242.92 602.68 C279.95 602.79 316.97 602.9 354 603 C354 601.95 353.99 600.89 353.99 599.81 C353.97 595.84 353.96 591.87 353.95 587.9 C353.95 586.19 353.94 584.49 353.93 582.78 C353.88 569.41 354.36 556.29 356 543 C356.08 542.35 356.16 541.69 356.24 541.02 C356.61 538.07 357.02 535.12 357.44 532.17 C358.21 526.61 358.81 521.02 359.44 515.44 C360.46 506.39 361.59 497.36 362.85 488.35 C363.61 482.93 364.32 477.51 364.98 472.08 C366.72 457.77 368.69 443.5 370.74 429.24 C371.12 426.59 371.5 423.94 371.87 421.28 C373.86 406.99 376.07 392.79 379.07 378.68 C379.19 378.1 379.32 377.53 379.44 376.94 C381.58 366.82 384.65 357.37 389 348 C389.46 346.98 389.92 345.97 390.39 344.92 C396.82 332 405.64 323.21 418.42 316.82 C420.55 315.71 422.55 314.42 424.56 313.12 C429.77 309.97 435.25 307.38 440.75 304.75 C441.66 304.31 442.57 303.88 443.51 303.43 C450.81 299.98 450.81 299.98 454.45 298.83 C456.7 298.1 458.19 297.4 460.06 296 C461.9 294.7 463.3 293.88 465.44 293.06 C468.38 291.84 470.61 290.19 473.17 288.3 C477.22 285.42 481.11 283.07 486 282 C485.54 283.71 485.08 285.42 484.62 287.12 C484.5 287.6 484.5 287.6 483.85 290.01 C483 293 483 293 482 295.68 C480.84 299.52 480.45 303.1 480.15 307.09 C480.08 307.88 480.02 308.67 479.95 309.49 C479.75 312.12 479.56 314.74 479.38 317.38 C479.31 318.29 479.24 319.21 479.18 320.15 C477.08 350.63 477.22 381.04 479.5 411.5 C482.46 451.04 481.61 490.56 478.75 530.08 C478.69 530.93 478.63 531.78 478.57 532.66 C478.51 533.44 478.45 534.22 478.39 535.03 C478.34 535.7 478.29 536.38 478.23 537.07 C477.99 539.11 477.51 541.01 477 543 C476.88 544.76 476.8 546.52 476.75 548.29 C476.72 549.31 476.69 550.34 476.65 551.39 C476.59 553.52 476.54 555.65 476.48 557.79 C476.45 558.82 476.41 559.85 476.38 560.91 C476.35 561.84 476.33 562.77 476.3 563.73 C475.89 568.23 474.95 572.59 474 577 C474.65 577 475.3 577 475.97 576.99 C482.22 576.97 488.47 576.96 494.71 576.95 C497.92 576.94 501.13 576.94 504.34 576.92 C520.59 576.87 536.77 577.1 553 578 C552.85 577.16 552.69 576.33 552.53 575.47 C551.93 571.82 551.66 568.18 551.45 564.49 C551.41 563.76 551.37 563.03 551.33 562.27 C550.82 552.55 550.8 542.83 550.76 533.11 C550.76 532.09 550.75 531.07 550.75 530.02 C550.73 524.61 550.71 519.21 550.7 513.81 C550.7 509.42 550.68 505.02 550.64 500.62 C550.31 453.01 550.31 453.01 555 430 C555.08 429.59 555.08 429.59 555.49 427.51 C556.45 422.68 557.56 417.9 558.75 413.12 C559.1 411.7 559.44 410.28 559.79 408.85 C560.83 404.56 561.91 400.28 563 396 C563.09 395.66 563.09 395.66 563.52 393.95 C567.45 378.53 571.71 363.24 576.46 348.05 C577.58 344.46 578.58 340.85 579.54 337.21 C580.57 333.35 581.8 329.88 583.62 326.31 C585.49 322.4 586.46 319.24 586.76 314.95 C587.03 312.72 587.67 310.85 588.44 308.75 C590.38 303.3 591.18 297.71 592 292 C592.66 291.67 593.32 291.34 594 291 C594.84 286.65 595.11 282.56 595.06 278.12 C595.05 276.97 595.04 275.82 595.04 274.63 C595.02 273.76 595.01 272.9 595 272 C611.58 280.19 611.58 280.19 618.11 283.99 C620.34 285.18 622.65 286.06 625 287 C626.57 287.8 628.13 288.61 629.69 289.44 C632.98 291.11 636.06 292.39 639.62 293.31 C645.16 294.83 650.03 297.41 655.11 300.02 C658.75 301.9 662.35 303.62 666.19 305.06 C670.82 306.82 675.07 309.11 679.39 311.51 C682.07 312.99 684.68 314.34 687.56 315.38 C706.46 323.09 717.38 343.01 725.06 360.72 C729.22 370.81 732.26 381.33 734.95 391.9 C735.66 394.68 736.39 397.46 737.13 400.24 C740.08 411.29 742.82 422.36 745.38 433.5 C745.57 434.33 745.76 435.16 745.95 436.01 C751.86 461.76 757.17 487.54 760.63 513.74 C761 516 761 516 762 519 C762.13 521.58 762.21 524.14 762.24 526.72 C762.25 527.48 762.26 528.25 762.27 529.04 C762.59 560.49 762.59 560.49 758 575 C757.8 575.66 757.6 576.32 757.4 577 C754.73 585.85 751.32 594.37 748 603 C838.75 603 929.5 603 1023 603 C1023 615.21 1023 627.42 1023 640 C685.41 640 347.82 640 0 640 C0 428.8 0 217.6 0 0 Z " fill="#1F1F1F" transform="translate(0,0)"/>
<path d="M0 0 C16.58 8.19 16.58 8.19 23.11 11.99 C25.34 13.18 27.65 14.06 30 15 C31.57 15.8 33.13 16.61 34.69 17.44 C37.98 19.11 41.06 20.39 44.62 21.31 C50.16 22.83 55.03 25.41 60.11 28.02 C63.75 29.9 67.35 31.62 71.19 33.06 C75.82 34.82 80.07 37.11 84.39 39.51 C87.07 40.99 89.68 42.34 92.56 43.38 C111.46 51.09 122.38 71.01 130.06 88.72 C134.22 98.81 137.26 109.33 139.95 119.9 C140.66 122.68 141.39 125.46 142.13 128.24 C145.08 139.29 147.82 150.36 150.38 161.5 C150.47 161.91 150.47 161.91 150.95 164.01 C156.86 189.76 162.17 215.54 165.63 241.74 C166 244 166 244 167 247 C167.13 249.58 167.21 252.14 167.24 254.72 C167.25 255.48 167.26 256.25 167.27 257.04 C167.59 288.49 167.59 288.49 163 303 C162.8 303.66 162.6 304.32 162.4 305 C159.73 313.85 156.32 322.37 153 331 C22.98 331 -107.04 331 -241 331 C-241 287.25 -241 287.25 -239 271 C-238.92 270.35 -238.84 269.69 -238.76 269.02 C-238.39 266.07 -237.98 263.12 -237.56 260.17 C-236.79 254.61 -236.19 249.02 -235.56 243.44 C-234.54 234.39 -233.41 225.36 -232.15 216.35 C-231.39 210.93 -230.68 205.51 -230.02 200.08 C-228.28 185.77 -226.31 171.5 -224.26 157.24 C-223.88 154.59 -223.5 151.94 -223.13 149.28 C-221.14 134.99 -218.93 120.79 -215.93 106.68 C-215.81 106.1 -215.68 105.53 -215.56 104.94 C-213.42 94.82 -210.35 85.37 -206 76 C-205.54 74.98 -205.08 73.97 -204.61 72.92 C-198.18 60 -189.36 51.21 -176.58 44.82 C-174.45 43.71 -172.45 42.42 -170.44 41.12 C-165.23 37.97 -159.75 35.38 -154.25 32.75 C-153.34 32.31 -152.43 31.88 -151.49 31.43 C-144.19 27.98 -144.19 27.98 -140.55 26.83 C-138.3 26.1 -136.81 25.4 -134.94 24 C-133.1 22.7 -131.7 21.88 -129.56 21.06 C-126.62 19.84 -124.39 18.19 -121.83 16.3 C-117.78 13.42 -113.89 11.07 -109 10 C-109.46 11.71 -109.92 13.42 -110.38 15.12 C-110.63 16.08 -110.89 17.03 -111.15 18.01 C-112 21 -112 21 -113 23.68 C-114.16 27.52 -114.55 31.1 -114.85 35.09 C-114.92 35.88 -114.98 36.67 -115.05 37.49 C-115.25 40.12 -115.44 42.74 -115.62 45.38 C-115.69 46.29 -115.76 47.21 -115.82 48.15 C-117.92 78.63 -117.78 109.04 -115.5 139.5 C-112.54 179.04 -113.39 218.56 -116.25 258.08 C-116.31 258.93 -116.37 259.78 -116.43 260.66 C-116.49 261.44 -116.55 262.22 -116.61 263.03 C-116.66 263.7 -116.71 264.38 -116.77 265.07 C-117.01 267.11 -117.49 269.01 -118 271 C-118.12 272.76 -118.2 274.52 -118.25 276.29 C-118.26 276.8 -118.26 276.8 -118.35 279.39 C-118.41 281.52 -118.46 283.65 -118.52 285.79 C-118.55 286.82 -118.59 287.85 -118.62 288.91 C-118.63 289.38 -118.63 289.38 -118.7 291.73 C-119.11 296.23 -120.05 300.59 -121 305 C-120.35 305 -119.7 305 -119.03 304.99 C-112.78 304.97 -106.53 304.96 -100.29 304.95 C-97.08 304.94 -93.87 304.94 -90.66 304.92 C-74.41 304.87 -58.23 305.1 -42 306 C-42.15 305.16 -42.31 304.33 -42.47 303.47 C-43.07 299.82 -43.34 296.18 -43.55 292.49 C-43.59 291.76 -43.63 291.03 -43.67 290.27 C-44.18 280.55 -44.2 270.83 -44.24 261.11 C-44.24 260.09 -44.25 259.07 -44.25 258.02 C-44.27 252.61 -44.29 247.21 -44.3 241.81 C-44.3 237.42 -44.32 233.02 -44.36 228.62 C-44.69 181.01 -44.69 181.01 -40 158 C-39.84 157.18 -39.68 156.36 -39.51 155.51 C-38.55 150.68 -37.44 145.9 -36.25 141.12 C-35.9 139.7 -35.56 138.28 -35.21 136.85 C-34.17 132.56 -33.09 128.28 -32 124 C-31.83 123.32 -31.66 122.65 -31.48 121.95 C-27.55 106.53 -23.29 91.24 -18.54 76.05 C-17.42 72.46 -16.42 68.85 -15.46 65.21 C-14.43 61.35 -13.2 57.88 -11.38 54.31 C-9.51 50.4 -8.54 47.24 -8.24 42.95 C-7.97 40.72 -7.33 38.85 -6.56 36.75 C-4.62 31.3 -3.82 25.71 -3 20 C-2.67 19.83 -2.67 19.83 -1 19 C-0.16 14.65 0.11 10.56 0.06 6.12 C0.05 4.97 0.04 3.82 0.04 2.63 C0.02 1.76 0.01 0.9 0 0 Z " fill="#1F3356" transform="translate(595,272)"/>
<path d="M0 0 C8.52 6.43 8.52 6.43 11.05 10.55 C11.05 12.86 11.05 15.17 11.05 17.55 C14.35 17.55 17.65 17.55 21.05 17.55 C30.81 23.2 37.95 29.77 42.05 40.55 C42.93 45.57 42.63 50.67 42.43 55.73 C42.4 57.08 42.37 58.43 42.34 59.78 C42.28 63.03 42.18 66.29 42.05 69.55 C41.39 69.55 40.73 69.55 40.05 69.55 C40.05 74.5 40.05 79.45 40.05 84.55 C40.71 84.55 41.37 84.55 42.05 84.55 C47.95 93.88 48.1 102.29 46.24 112.98 C44.23 121.65 39.32 127.45 33.05 133.55 C30.74 133.88 28.43 134.21 26.05 134.55 C24.49 139.55 23.57 144.33 23.05 149.55 C22.72 149.88 22.39 150.21 22.05 150.55 C22.05 160.12 22.05 169.69 22.05 179.55 C24.36 179.88 26.67 180.21 29.05 180.55 C29.26 181.27 29.46 181.99 29.68 182.73 C31.44 186.35 33.86 188.19 37.05 190.55 C37.04 190.81 37.04 190.81 37.02 192.16 C37.01 192.86 37 193.57 36.99 194.3 C36.98 194.64 36.98 194.64 36.95 196.41 C37.05 198.55 37.05 198.55 37.55 200.45 C38.19 203.11 38.15 205.57 38.11 208.3 C38.1 209.28 38.1 210.27 38.09 211.28 C38.08 211.66 38.08 211.66 38.05 213.55 C37.06 213.88 36.07 214.21 35.05 214.55 C35.11 215.62 35.17 216.69 35.24 217.8 C35.27 223.59 33.6 229.01 32.05 234.55 C31.72 234.88 31.39 235.21 31.05 235.55 C30.99 236.64 30.93 237.73 30.86 238.86 C30.42 242.49 29.36 245.26 27.75 248.54 C24.9 254.64 22.96 260.84 21.11 267.3 C20.77 268.48 20.42 269.66 20.08 270.85 C17.64 279.27 15.35 287.74 13.22 296.25 C12.01 301.01 10.7 305.73 9.28 310.44 C6.59 319.36 4.37 328.32 2.42 337.43 C1.93 339.72 1.42 342 0.91 344.29 C-3.37 363.89 -5.41 383.06 -5.28 403.11 C-5.27 405.19 -5.27 407.28 -5.27 409.37 C-5.27 413.71 -5.25 418.05 -5.23 422.39 C-5.2 427.88 -5.19 433.37 -5.19 438.86 C-5.18 444.19 -5.17 449.52 -5.15 454.86 C-5.15 455.35 -5.15 455.35 -5.15 457.82 C-5.11 472.09 -4.67 486.3 -3.95 500.55 C-20.8 500.61 -37.64 500.41 -54.49 500.08 C-57.71 500.02 -60.94 499.96 -64.17 499.9 C-70.43 499.79 -76.69 499.67 -82.95 499.55 C-82.91 499.22 -82.91 499.22 -82.74 497.57 C-82.25 492.87 -81.82 488.19 -81.67 483.46 C-81.63 482.43 -81.59 481.4 -81.55 480.33 C-81.48 478.2 -81.41 476.07 -81.34 473.94 C-81.31 472.92 -81.27 471.89 -81.23 470.84 C-81.2 469.92 -81.17 468.99 -81.14 468.05 C-80.95 465.55 -80.95 465.55 -80.46 463.64 C-79.96 461.59 -79.72 459.68 -79.56 457.58 C-79.53 457.18 -79.53 457.18 -79.38 455.2 C-79.32 454.35 -79.26 453.5 -79.2 452.62 C-79.13 451.72 -79.06 450.81 -79 449.88 C-76.22 410.29 -75.69 370.83 -78.66 331.24 C-80.92 300.91 -80.73 270.57 -78.64 240.23 C-78.58 239.36 -78.52 238.48 -78.46 237.58 C-77.34 221.39 -74.08 207.77 -65.95 193.55 C-66.95 174.55 -66.95 174.55 -72.95 167.55 C-72.95 166.56 -72.95 165.57 -72.95 164.55 C-74.27 164.22 -75.59 163.89 -76.95 163.55 C-77.28 161.57 -77.61 159.59 -77.95 157.55 C-78.61 157.55 -79.27 157.55 -79.95 157.55 C-80.21 156.7 -80.48 155.86 -80.75 154.99 C-81.11 153.9 -81.46 152.8 -81.82 151.67 C-82.17 150.58 -82.52 149.49 -82.88 148.37 C-83.95 145.55 -83.95 145.55 -85.95 143.55 C-87.93 142.83 -89.93 142.16 -91.95 141.55 C-92.86 140.42 -93.78 139.29 -94.68 138.15 C-95.57 137.02 -96.49 135.9 -97.41 134.79 C-105.92 124.14 -106.5 114.69 -105.95 101.55 C-104.96 100.23 -103.97 98.91 -102.95 97.55 C-103.4 93.09 -104.22 89.85 -106.12 85.76 C-107.46 82.17 -108.14 78.42 -108.89 74.67 C-109.5 71.63 -110.16 68.68 -111.14 65.73 C-112.21 61.51 -112.22 57.88 -111.95 53.55 C-111.92 52.92 -111.89 52.29 -111.86 51.64 C-111.3 41.36 -109.88 34.55 -102.95 26.55 C-102.2 25.46 -101.47 24.35 -100.76 23.23 C-97.6 18.54 -94.06 14.43 -89.95 10.55 C-89.61 10.22 -89.61 10.22 -87.91 8.59 C-87.16 7.9 -86.41 7.2 -85.64 6.48 C-84.94 5.83 -84.24 5.18 -83.52 4.51 C-77.82 0.16 -71.18 -2.26 -64.45 -4.58 C-63.74 -4.83 -63.03 -5.08 -62.3 -5.34 C-42.19 -12.37 -18.24 -12.23 0 0 Z " fill="#E2E2E1" transform="translate(556.94921875,77.453125)"/>
<path d="M0 0 C8.52 6.43 8.52 6.43 11.05 10.55 C11.05 12.86 11.05 15.17 11.05 17.55 C14.35 17.55 17.65 17.55 21.05 17.55 C30.81 23.2 37.95 29.77 42.05 40.55 C42.93 45.57 42.63 50.67 42.43 55.73 C42.4 57.08 42.37 58.43 42.34 59.78 C42.28 63.03 42.18 66.29 42.05 69.55 C41.39 69.55 40.73 69.55 40.05 69.55 C40.06 70.45 40.07 71.35 40.09 72.29 C40.1 73.48 40.1 74.67 40.11 75.86 C40.12 76.45 40.13 77.05 40.14 77.66 C40.16 80.59 39.99 82.74 39.05 85.55 C36.74 86.54 34.43 87.53 32.05 88.55 C29.31 93.4 28.08 98.08 27.05 103.55 C26.06 103.55 25.07 103.55 24.05 103.55 C24.05 99.92 24.05 96.29 24.05 92.55 C23.25 92.71 22.44 92.88 21.61 93.05 C17.43 93.76 13.29 93.61 9.05 93.55 C9.05 96.85 9.05 100.15 9.05 103.55 C1.73 115.32 1.73 115.32 -4.95 117.55 C-7.07 117.67 -9.2 117.72 -11.32 117.73 C-12.45 117.75 -13.57 117.76 -14.72 117.78 C-18.78 117.49 -21.61 116.77 -24.64 114 C-28.96 108.67 -32.13 104.55 -32.95 97.55 C-34.57 97.52 -36.2 97.5 -37.82 97.48 C-38.28 97.48 -38.28 97.48 -40.57 97.45 C-42.95 97.55 -42.95 97.55 -44.95 98.55 C-46.27 103.5 -47.59 108.45 -48.95 113.55 C-50 114.66 -51.05 115.77 -52.14 116.92 C-52.73 117.55 -53.32 118.17 -53.93 118.82 C-58.83 123.01 -63.9 122.92 -70.08 122.79 C-76.72 122.22 -80.73 118.47 -84.95 113.55 C-87.47 109.99 -87.11 106.77 -86.95 102.55 C-88.6 102.55 -90.25 102.55 -91.95 102.55 C-91.95 105.85 -91.95 109.15 -91.95 112.55 C-92.61 112.55 -93.27 112.55 -93.95 112.55 C-94.28 109.91 -94.61 107.27 -94.95 104.55 C-95.61 104.55 -96.27 104.55 -96.95 104.55 C-96.95 102.57 -96.95 100.59 -96.95 98.55 C-98.27 97.89 -99.59 97.23 -100.95 96.55 C-101.21 95.94 -101.48 95.34 -101.75 94.72 C-102.11 93.92 -102.46 93.12 -102.82 92.3 C-103.17 91.51 -103.52 90.72 -103.88 89.91 C-104.95 87.55 -104.95 87.55 -105.99 85.68 C-107.29 82.79 -107.85 79.82 -108.45 76.73 C-109.95 69.31 -109.95 69.31 -111.14 65.73 C-112.21 61.51 -112.22 57.88 -111.95 53.55 C-111.92 52.92 -111.89 52.29 -111.86 51.64 C-111.3 41.36 -109.88 34.55 -102.95 26.55 C-102.2 25.46 -101.47 24.35 -100.76 23.23 C-97.6 18.54 -94.06 14.43 -89.95 10.55 C-89.61 10.22 -89.61 10.22 -87.91 8.59 C-87.16 7.9 -86.41 7.2 -85.64 6.48 C-84.94 5.83 -84.24 5.18 -83.52 4.51 C-77.82 0.16 -71.18 -2.26 -64.45 -4.58 C-63.74 -4.83 -63.03 -5.08 -62.3 -5.34 C-42.19 -12.37 -18.24 -12.23 0 0 Z " fill="#2D2D2D" transform="translate(556.94921875,77.453125)"/>
<path d="M0 0 C0.33 0.66 0.66 1.32 1 2 C1.66 2 2.32 2 3 2 C8.9 11.34 9.05 19.74 7.19 30.44 C5.18 39.11 0.27 44.9 -6 51 C-7.15 51.16 -7.15 51.16 -13 52 C-14.56 57 -15.49 61.79 -16 67 C-16.33 67.33 -16.66 67.66 -17 68 C-17 77.57 -17 87.14 -17 97 C-16.01 97 -15.02 97 -14 97 C-14 105 -14 105 -15.47 106.58 C-19.33 110.82 -22.88 115.08 -26.19 119.75 C-28.89 123.55 -31.55 126.88 -35 130 C-35.66 130 -36.32 130 -37 130 C-37.24 130.57 -37.48 131.15 -37.73 131.74 C-39.25 134.45 -41.04 136.08 -43.38 138.12 C-44.15 138.81 -44.92 139.49 -45.71 140.2 C-47.77 141.82 -49.66 142.86 -52 144 C-53.28 145.22 -54.56 146.44 -55.78 147.72 C-57 149 -57 149 -59.06 150.81 C-61.26 153.29 -62.45 155.73 -63.86 158.71 C-65.59 162.18 -67.67 165.42 -69.73 168.7 C-70.91 170.84 -71.55 172.61 -72 175 C-73.32 175 -74.64 175 -76 175 C-76.38 174.23 -76.75 173.45 -77.14 172.66 C-80.12 166.55 -83.23 160.67 -87 155 C-87 154.34 -87 153.68 -87 153 C-87.66 153 -88.32 153 -89 153 C-97.81 138.28 -97.81 138.28 -100 130 C-100.34 128.98 -100.69 127.97 -101.04 126.92 C-102.42 122.09 -102.38 117.19 -102.5 112.19 C-102.67 104.88 -103.39 98.15 -105 91 C-107.31 89.02 -109.62 87.04 -112 85 C-112 84.01 -112 83.02 -112 82 C-113.32 81.67 -114.64 81.34 -116 81 C-116.33 79.02 -116.66 77.04 -117 75 C-117.66 75 -118.32 75 -119 75 C-119.27 74.16 -119.53 73.31 -119.8 72.45 C-120.16 71.35 -120.51 70.25 -120.88 69.12 C-121.22 68.03 -121.57 66.94 -121.93 65.82 C-123 63 -123 63 -125 61 C-126.98 60.29 -128.98 59.61 -131 59 C-131.92 57.87 -132.83 56.74 -133.73 55.61 C-134.63 54.47 -135.54 53.35 -136.46 52.24 C-144.97 41.59 -145.55 32.15 -145 19 C-143.68 17.02 -142.36 15.04 -141 13 C-139.35 13.99 -137.7 14.98 -136 16 C-136 17.98 -136 19.96 -136 22 C-135.34 22 -134.68 22 -134 22 C-132.65 24.71 -132.93 27.01 -133 30 C-132.34 30 -131.68 30 -131 30 C-131 26.7 -131 23.4 -131 20 C-129.35 20 -127.7 20 -126 20 C-125.96 20.52 -125.96 20.52 -125.75 23.12 C-124.92 28.94 -121.41 33.26 -117 37 C-111.14 39.83 -104.43 40 -98.1 38.57 C-93.73 36.69 -90.32 33.06 -88 29 C-86.54 24.78 -85.75 20.39 -85 16 C-82 14 -82 14 -72 14 C-71.63 15.13 -71.26 16.27 -70.88 17.44 C-68.72 23.23 -65.38 28.62 -61 33 C-54.68 34.89 -46.1 35.54 -40.06 32.56 C-35.19 29.1 -31.64 24.03 -30.41 18.19 C-30.16 15.8 -30.07 13.4 -30 11 C-25.05 10.67 -20.1 10.34 -15 10 C-15 13.63 -15 17.26 -15 21 C-14.01 21 -13.02 21 -12 21 C-11.96 20.42 -11.93 19.84 -11.89 19.24 C-11.37 13.11 -10.7 8.31 -5.81 4.12 C-4 3 -4 3 0 3 C0 2.01 0 1.02 0 0 Z " fill="#F7C396" transform="translate(596,160)"/>
<path d="M0 0 C0.77 -0.01 1.54 -0.03 2.34 -0.04 C7.83 -0.05 12.51 0.31 16.93 3.91 C17.51 4.54 18.09 5.17 18.69 5.81 C18.99 6.13 18.99 6.13 20.49 7.73 C21.81 9.19 21.81 9.19 22.14 11.68 C24.82 30.52 24.82 30.52 31.41 38.4 C35.7 43.87 35.37 49.41 35.81 56.19 C30.53 56.19 25.25 56.19 19.81 56.19 C18.82 54.54 17.83 52.89 16.81 51.19 C11.01 45.79 4.52 45.74 -2.95 45.93 C-9.99 46.2 -8.56 46.47 -16.19 52.19 C-17.18 54.83 -18.17 57.47 -19.19 60.19 C-21.83 60.35 -21.83 60.35 -35.19 61.19 C-37.17 58.55 -39.15 55.91 -41.19 53.19 C-53.92 48.41 -53.92 48.41 -60.8 51.28 C-62.55 52.15 -64.28 53.05 -65.99 54 C-68.19 55.19 -68.19 55.19 -71.19 56.19 C-72.18 59.16 -73.17 62.13 -74.19 65.19 C-75.84 65.19 -77.49 65.19 -79.19 65.19 C-79.19 52.19 -79.19 52.19 -77.19 49.19 C-76.86 39.95 -76.53 30.71 -76.19 21.19 C-66.58 11.58 -66.58 11.58 -62.19 9.19 C-61.62 8.86 -61.04 8.52 -60.46 8.18 C-53.23 4.46 -45.87 4.37 -37.94 4.06 C-35.91 3.97 -33.88 3.88 -31.85 3.78 C-30.6 3.71 -29.35 3.66 -28.1 3.62 C-24.4 3.44 -21.55 2.71 -18.19 1.19 C-12.28 -0.15 -6.03 0.06 0 0 Z " fill="#F6C397" transform="translate(544.1875,111.8125)"/>
<path d="M0 0 C0.79 0.16 1.59 0.31 2.41 0.47 C5.91 1.17 8.67 1.81 11.81 3.56 C16.69 5.76 21.71 5.75 27 6 C27 6.33 27 6.66 27 7 C26.16 7.13 25.31 7.27 24.45 7.4 C23.35 7.58 22.25 7.76 21.12 7.94 C20.58 8.02 20.58 8.02 17.82 8.46 C15 9 15 9 13 10 C10.85 10.18 8.72 10.3 6.56 10.39 C5.24 10.46 3.92 10.53 2.6 10.6 C0.53 10.71 -1.54 10.81 -3.61 10.9 C-14.12 11.35 -22.37 12.61 -30.81 19.5 C-31.17 19.78 -31.17 19.78 -32.96 21.22 C-35.06 23.05 -37.03 25.03 -39 27 C-39.33 36.24 -39.66 45.48 -40 55 C-40.66 55.99 -41.32 56.98 -42 58 C-42.3 60.26 -42.51 62.42 -42.62 64.69 C-42.66 65.29 -42.7 65.9 -42.74 66.53 C-42.84 68.02 -42.92 69.51 -43 71 C-41.35 71 -39.7 71 -38 71 C-37.94 70.63 -37.94 70.63 -37.62 68.75 C-36.65 64.48 -35.86 62.66 -32.31 59.94 C-26.39 56.31 -21.07 53.86 -14 55 C-7.93 56.7 -3.32 58.51 0 64 C0.33 64.66 0.66 65.32 1 66 C6.28 66 11.56 66 17 66 C17.33 64.02 17.66 62.04 18 60 C20.87 55.53 23.31 54.12 28 51 C44 51 44 51 54 57 C54.33 57.82 54.33 57.82 56 62 C60.95 62 65.9 62 71 62 C71.66 62.66 72.32 63.32 73 64 C67.94 65.04 63.17 65.08 58 65 C58 68.3 58 71.6 58 75 C50.68 86.77 50.68 86.77 44 89 C41.88 89.12 39.75 89.18 37.62 89.19 C36.5 89.2 35.38 89.22 34.23 89.23 C30.16 88.94 27.34 88.23 24.3 85.45 C19.99 80.13 16.81 76.01 16 69 C14.38 68.97 12.75 68.95 11.12 68.94 C10.67 68.93 10.67 68.93 8.38 68.9 C6 69 6 69 4 70 C2.68 74.95 1.36 79.9 0 85 C-1.05 86.11 -2.1 87.23 -3.19 88.38 C-3.78 89 -4.37 89.63 -4.98 90.27 C-9.88 94.46 -14.95 94.37 -21.13 94.25 C-27.77 93.68 -31.78 89.93 -36 85 C-38.52 81.45 -38.16 78.22 -38 74 C-39.65 74 -41.3 74 -43 74 C-43 77.3 -43 80.6 -43 84 C-43.66 84 -44.32 84 -45 84 C-45.33 81.36 -45.66 78.72 -46 76 C-46.66 76 -47.32 76 -48 76 C-48 74.02 -48 72.04 -48 70 C-49.32 69.34 -50.64 68.68 -52 68 C-52.27 67.4 -52.53 66.79 -52.8 66.17 C-53.16 65.37 -53.51 64.57 -53.88 63.75 C-54.05 63.36 -54.05 63.36 -54.93 61.36 C-56 59 -56 59 -57.03 57.13 C-58.35 54.24 -59.02 51.27 -59.69 48.19 C-59.83 47.6 -59.97 47.01 -60.12 46.4 C-61.09 41.96 -60.85 38.46 -60 34 C-59.43 33.37 -58.86 32.74 -58.28 32.09 C-54.57 27.98 -50.87 23.87 -47.25 19.69 C-39.89 11.25 -39.89 11.25 -36 9 C-38.31 8.67 -40.62 8.34 -43 8 C-32.67 -4.4 -14.31 -3.46 0 0 Z " fill="#21211F" transform="translate(508,106)"/>
<path d="M0 0 C3.96 0 7.92 0 12 0 C10.68 0.33 9.36 0.66 8 1 C7.67 1.99 7.34 2.98 7 4 C6.01 4 5.02 4 4 4 C4 5.32 4 6.64 4 8 C2.68 8 1.36 8 0 8 C-0.33 9.65 -0.66 11.3 -1 13 C-1.99 13 -2.98 13 -4 13 C-4.33 14.65 -4.66 16.3 -5 18 C-5.99 18 -6.98 18 -8 18 C-8 19.65 -8 21.3 -8 23 C-8.66 23.16 -8.66 23.16 -12 24 C-12 25.65 -12 27.3 -12 29 C-13.32 30.65 -14.64 32.3 -16 34 C-69.13 34 -122.26 34 -177 34 C-177 32.68 -177 31.36 -177 30 C-174.36 30 -171.72 30 -169 30 C-169 29.34 -169 28.68 -169 28 C-165.14 27.57 -161.28 27.14 -157.42 26.72 C-156.11 26.57 -154.8 26.43 -153.49 26.28 C-151.6 26.07 -149.7 25.86 -147.81 25.66 C-146.67 25.53 -145.54 25.4 -144.36 25.28 C-140.88 24.99 -137.49 24.95 -134 25 C-134 24.34 -134 23.68 -134 23 C-133.11 22.89 -132.22 22.79 -131.3 22.68 C-127.92 22.28 -124.53 21.87 -121.15 21.46 C-119.7 21.28 -118.25 21.11 -116.8 20.94 C-107.93 19.88 -99.21 18.54 -90.46 16.71 C-85.5 15.68 -80.5 14.87 -75.5 14.06 C-69.16 13.03 -62.81 11.98 -56.48 10.86 C-55.44 10.67 -54.39 10.49 -53.31 10.29 C-51.31 9.94 -49.31 9.58 -47.31 9.22 C-46.41 9.06 -45.51 8.9 -44.58 8.73 C-43.79 8.59 -43 8.45 -42.18 8.3 C-40.09 8.01 -38.11 7.94 -36 8 C-36 7.34 -36 6.68 -36 6 C-32.16 5.42 -28.32 4.85 -24.48 4.29 C-23.17 4.1 -21.87 3.91 -20.57 3.71 C-13.69 2.68 -6.98 1.72 0 2 C0 1.34 0 0.68 0 0 Z " fill="#131315" transform="translate(925,604)"/>
<path d="M0 0 C0.33 0 0.66 0 1 0 C2.07 24.66 2.07 24.66 -8.25 37.5 C-8.92 38.34 -9.58 39.17 -10.27 40.03 C-12 42 -12 42 -14 43 C-14.33 44.65 -14.66 46.3 -15 48 C-15.66 48 -16.32 48 -17 48 C-17.24 48.57 -17.48 49.15 -17.73 49.74 C-19.25 52.45 -21.04 54.08 -23.38 56.12 C-23.76 56.47 -23.76 56.47 -25.71 58.2 C-27.77 59.82 -29.66 60.86 -32 62 C-33.28 63.22 -34.56 64.44 -35.78 65.72 C-37 67 -37 67 -39.06 68.81 C-41.26 71.29 -42.45 73.73 -43.86 76.71 C-45.59 80.18 -47.67 83.42 -49.73 86.7 C-50.91 88.84 -51.55 90.61 -52 93 C-53.32 93 -54.64 93 -56 93 C-56.38 92.23 -56.75 91.45 -57.14 90.66 C-60.12 84.55 -63.23 78.67 -67 73 C-67 72.34 -67 71.68 -67 71 C-67.66 71 -68.32 71 -69 71 C-77.81 56.28 -77.81 56.28 -80 48 C-80.35 46.95 -80.7 45.89 -81.06 44.8 C-82.28 40.55 -82.22 36.46 -82.12 32.06 C-82.12 31.28 -82.11 30.5 -82.1 29.7 C-82.07 27.8 -82.04 25.9 -82 24 C-80.75 24.74 -79.5 25.49 -78.25 26.25 C-77.9 26.46 -77.9 26.46 -76.14 27.52 C-73.8 29.14 -72 30.97 -70 33 C-68.16 34.61 -66.27 36.15 -64.38 37.69 C-63.89 38.09 -63.4 38.49 -62.89 38.91 C-58.25 42.7 -55.38 43.59 -49.4 43.53 C-37.94 41.74 -27.8 34.22 -20 26 C-19.4 25.38 -18.81 24.75 -18.19 24.11 C-14.48 20.03 -11.13 15.66 -7.75 11.31 C-7.54 11.04 -7.54 11.04 -6.46 9.66 C-4.08 6.55 -1.95 3.41 0 0 Z " fill="#F7C295" transform="translate(576,242)"/>
<path d="M0 0 C1.32 0.33 2.64 0.66 4 1 C4.21 1.72 4.41 2.44 4.62 3.19 C6.39 6.81 8.81 8.64 12 11 C11.99 11.53 11.98 12.06 11.96 12.61 C11.96 13.32 11.95 14.02 11.94 14.75 C11.93 15.45 11.91 16.14 11.9 16.86 C12 19 12 19 12.5 20.91 C13.13 23.56 13.09 26.02 13.06 28.75 C13.05 29.73 13.04 30.72 13.04 31.73 C13.02 32.48 13.01 33.23 13 34 C12.01 34.33 11.02 34.66 10 35 C10.02 35.51 10.05 36.02 10.07 36.54 C10.19 41.19 9.73 44.68 8 49 C7.34 49 6.68 49 6 49 C5.73 49.87 5.46 50.74 5.18 51.63 C4.1 54.85 2.71 57.84 1.19 60.88 C0.93 61.39 0.67 61.91 0.4 62.45 C-1.52 66.21 -3.65 69.78 -6.02 73.28 C-7.09 75.16 -7.57 76.88 -8 79 C-12.3 77.63 -14.46 75.78 -17.38 72.38 C-17.76 71.93 -18.15 71.49 -18.54 71.03 C-19.7 69.7 -20.85 68.35 -22 67 C-23.27 65.52 -24.54 64.04 -25.81 62.56 C-26.33 61.95 -26.86 61.33 -27.39 60.69 C-29.12 58.87 -30.96 57.45 -33 56 C-33 55.34 -33 54.68 -33 54 C-40 55 -40 55 -42 57 C-42.63 58.73 -42.63 58.73 -43.12 60.62 C-43.41 61.74 -43.7 62.85 -44 64 C-46.31 64 -48.62 64 -51 64 C-47 54 -47 54 -41.92 50.48 C-40 49 -40 49 -38.08 47.08 C-35.07 44.08 -31.7 41.59 -28.34 39 C-26.17 37.14 -24.6 35.35 -23 33 C-22.34 33 -21.68 33 -21 33 C-20.34 31.68 -19.68 30.36 -19 29 C-18.01 28.67 -17.02 28.34 -16 28 C-15.91 27.67 -15.91 27.67 -15.44 26 C-13.36 21.67 -10.21 18.53 -7 15 C-5.85 13.67 -4.7 12.34 -3.56 11 C-2.72 10.01 -1.87 9.02 -1 8 C-0.67 5.36 -0.34 2.72 0 0 Z " fill="#F6EBD9" transform="translate(582,257)"/>
<path d="M0 0 C0.66 0 1.32 0 2 0 C1 6 1 6 0 7 C-0.08 8.11 -0.16 9.23 -0.25 10.38 C-0.88 15.62 -2.89 20.2 -5 25 C-5.66 24.67 -6.32 24.34 -7 24 C-8.98 27.3 -10.96 30.6 -13 34 C-18.71 33.58 -22.26 31.19 -26.88 27.94 C-27.56 27.47 -28.25 26.99 -28.96 26.51 C-30.65 25.35 -32.33 24.18 -34 23 C-38.44 24.3 -41.8 25.96 -45.66 28.59 C-45.92 28.76 -45.92 28.76 -47.21 29.64 C-48.83 30.73 -50.45 31.83 -52.06 32.94 C-53.68 34.04 -55.3 35.13 -56.92 36.23 C-58.39 37.22 -59.86 38.22 -61.32 39.22 C-68.52 44 -68.52 44 -72 44 C-72.1 46.3 -72.2 48.6 -72.3 50.91 C-72.39 52.96 -72.49 55.01 -72.58 57.06 C-72.82 62.52 -73.04 67.99 -73.22 73.46 C-73.54 83.12 -73.92 92.76 -74.94 102.38 C-75.01 103.11 -75.09 103.85 -75.16 104.61 C-75.56 107.95 -75.99 110.3 -78 113 C-78.2 96.2 -78.32 79.38 -77.47 62.6 C-77.41 61.26 -77.35 59.92 -77.31 58.59 C-76.97 49.12 -74.87 42.15 -70 34 C-70.59 33.72 -71.18 33.45 -71.78 33.16 C-73.89 32.06 -75.6 30.87 -77.45 29.4 C-78.07 28.91 -78.69 28.42 -79.33 27.91 C-79.96 27.41 -80.6 26.9 -81.25 26.38 C-81.9 25.86 -82.55 25.34 -83.22 24.81 C-84.82 23.54 -86.41 22.27 -88 21 C-92.32 22.24 -95.14 23.61 -98.62 26.56 C-101.41 28.91 -103.38 30.4 -107 31 C-106.46 26.69 -104.98 24.2 -102.38 20.75 C-102.02 20.28 -101.67 19.81 -101.3 19.32 C-100.21 17.87 -99.11 16.44 -98 15 C-97.31 14.1 -96.62 13.21 -95.91 12.29 C-94.29 10.18 -92.65 8.09 -91 6 C-89.68 6 -88.36 6 -87 6 C-83 12 -83 12 -83 15 C-80.36 14.67 -77.72 14.34 -75 14 C-74.01 15.56 -73.03 17.12 -72.06 18.69 C-71.52 19.56 -70.97 20.43 -70.41 21.32 C-69.03 23.95 -68.42 26.08 -68 29 C-66.68 29 -65.36 29 -64 29 C-63.97 28.59 -63.97 28.59 -63.81 26.5 C-63.11 22.06 -60.5 18.63 -58 15 C-55.36 15 -52.72 15 -50 15 C-49.67 12.69 -49.34 10.38 -49 8 C-48.01 7.01 -47.02 6.02 -46 5 C-43.69 5 -41.38 5 -39 5 C-38.63 5.44 -38.27 5.88 -37.89 6.33 C-32.68 12.43 -27.05 18.06 -21.33 23.68 C-20.13 24.87 -18.94 26.08 -17.76 27.3 C-16 29 -16 29 -14 30 C-13.9 29.29 -13.8 28.58 -13.7 27.84 C-12.9 24.58 -11.58 22.35 -9.81 19.5 C-6 13.23 -2.95 6.71 0 0 Z " fill="#DFD2BD" transform="translate(588,306)"/>
<path d="M0 0 C0.66 0 1.32 0 2 0 C2 12.15 -3.08 17.58 -10.12 26.81 C-10.33 27.08 -10.33 27.08 -11.36 28.44 C-14.02 31.91 -16.86 34.96 -20 38 C-20.63 38.65 -21.25 39.29 -21.89 39.96 C-29.68 47.49 -40.37 54.5 -51.5 54.5 C-59.72 53.82 -66.66 45.96 -73 41 C-73 40.34 -73 39.68 -73 39 C-73.76 38.73 -74.53 38.46 -75.31 38.19 C-78 37 -78 37 -81 34 C-81.66 29.71 -82.32 25.42 -83 21 C-79.89 22.25 -77.36 23.26 -74.55 24.91 C-73.95 25.26 -73.35 25.61 -72.73 25.97 C-72.12 26.33 -71.51 26.69 -70.88 27.06 C-69.64 27.79 -68.41 28.51 -67.18 29.22 C-66.64 29.54 -66.1 29.86 -65.55 30.18 C-57.67 34.34 -42.79 33.6 -34.39 31.16 C-27.81 28.33 -22.37 23.66 -17 19 C-16.65 18.71 -16.65 18.71 -14.89 17.26 C-12.17 15 -9.86 13.04 -8 10 C-7.01 10 -6.02 10 -5 10 C-4.73 9.28 -4.46 8.56 -4.19 7.81 C-3.01 5.02 -1.61 2.56 0 0 Z " fill="#DC9B6C" transform="translate(575,232)"/>
<path d="M0 0 C3.08 2.25 5.6 4.33 7.58 7.63 C8.01 16.64 7.32 21.53 1.58 28.63 C-5.65 31.72 -11.88 32.52 -19.43 29.94 C-24.48 27.49 -26.86 23.49 -29.42 18.63 C-29.45 17.05 -29.46 15.46 -29.48 13.88 C-29.49 13 -29.5 12.12 -29.52 11.21 C-29.43 8.85 -29.09 6.88 -28.42 4.63 C-19.06 -1.98 -11 -6.24 0 0 Z " fill="#F2C297" transform="translate(556.41796875,161.37109375)"/>
<path d="M0 0 C0.31 -0.01 0.31 -0.01 1.87 -0.04 C6.46 -0.05 10.21 0.4 13.7 3.55 C17.5 8.43 19.59 11.75 19.46 18.08 C19.02 21.48 17.71 24.14 16.19 27.19 C15.53 27.19 14.87 27.19 14.19 27.19 C13.53 28.51 12.87 29.83 12.19 31.19 C6.8 33.94 2.24 35.26 -3.81 34.19 C-8.79 32.32 -13.45 29.72 -16.17 25.01 C-18.02 19.76 -18.44 14.44 -16.12 9.44 C-12.53 2.21 -7.91 0.01 0 0 Z " fill="#F1C298" transform="translate(488.8125,163.8125)"/>
<path d="M0 0 C0.66 0 1.32 0 2 0 C2 0.66 2 1.32 2 2 C2.91 2.29 3.82 2.58 4.75 2.88 C9.69 4.59 12.36 6.25 16 10 C18.64 12.36 21.32 14.68 24 17 C24.33 17.99 24.66 18.98 25 20 C25.66 20 26.32 20 27 20 C27.33 20.99 27.66 21.98 28 23 C28.33 16.4 28.66 9.8 29 3 C29.33 3 29.66 3 30 3 C30 11.25 30 19.5 30 28 C29.34 28 28.68 28 28 28 C28.01 28.9 28.02 29.81 28.04 30.74 C28.04 31.93 28.05 33.12 28.06 34.31 C28.07 34.91 28.08 35.5 28.09 36.12 C28.1 39.05 27.94 41.19 27 44 C24.69 44.99 22.38 45.98 20 47 C17.26 51.86 16.03 56.53 15 62 C14.01 62 13.02 62 12 62 C12 58.04 12 54.08 12 50 C11.34 49.67 10.68 49.34 10 49 C9.99 48.23 9.97 47.45 9.96 46.66 C9.62 39.34 8.47 34.78 4 29 C-1.66 21.41 -3 13.45 -2 4 C-0.98 1.67 -0.98 1.67 0 0 Z " fill="#202020" transform="translate(569,119)"/>
<path d="M0 0 C12.14 0.04 23.91 5.56 33.19 13.19 C33.67 13.7 34.15 14.21 34.65 14.73 C36.32 16.31 37.74 17.03 39.88 17.88 C40.5 18.13 41.12 18.38 41.76 18.64 C42.23 18.82 42.7 19 43.19 19.19 C43.35 18.69 43.35 18.69 44.19 16.19 C44.85 16.19 45.51 16.19 46.19 16.19 C46.19 15.53 46.19 14.87 46.19 14.19 C48.5 14.19 50.81 14.19 53.19 14.19 C52.86 16.5 52.53 18.81 52.19 21.19 C51.69 21.35 51.69 21.35 49.19 22.19 C52.19 27.19 52.19 27.19 58.19 30.19 C57.53 30.52 56.87 30.85 56.19 31.19 C55.86 31.85 55.53 32.51 55.19 33.19 C53.21 31.21 51.23 29.23 49.19 27.19 C45.36 26.31 41.71 26 37.79 25.87 C37.2 25.85 36.61 25.83 36 25.81 C34.12 25.74 32.25 25.68 30.38 25.62 C29.1 25.58 27.82 25.54 26.54 25.49 C23.42 25.39 20.31 25.29 17.19 25.19 C15.54 23.54 13.89 21.89 12.19 20.19 C12.19 19.53 12.19 18.87 12.19 18.19 C11.46 18.06 10.73 17.94 9.98 17.81 C6.47 17.03 3.37 15.66 0.08 14.22 C-7.98 11.34 -15.87 10.81 -24.38 10.56 C-25.48 10.52 -26.58 10.49 -27.72 10.45 C-30.42 10.35 -33.11 10.27 -35.81 10.19 C-35.81 9.53 -35.81 8.87 -35.81 8.19 C-34.16 7.86 -32.51 7.53 -30.81 7.19 C-30.81 6.53 -30.81 5.87 -30.81 5.19 C-29.19 5.16 -27.56 5.14 -25.94 5.12 C-25.03 5.11 -24.13 5.1 -23.2 5.09 C-20.81 5.19 -20.81 5.19 -18.81 6.19 C-17.37 6.34 -15.91 6.44 -14.46 6.5 C-13.61 6.55 -12.76 6.59 -11.88 6.63 C-10.99 6.67 -10.1 6.71 -9.19 6.75 C-8.74 6.77 -8.74 6.77 -6.47 6.88 C-4.25 6.99 -2.03 7.09 0.19 7.19 C0.19 6.53 0.19 5.87 0.19 5.19 C-2.12 4.53 -4.43 3.87 -6.81 3.19 C-3.76 0.14 -3.76 0.14 0 0 Z " fill="#202020" transform="translate(508.8125,86.8125)"/>
<path d="M0 0 C0.66 0.33 1.32 0.66 2 1 C3.89 9.06 4.38 16.8 4.57 25.05 C4.97 37.56 9.65 47.98 15.83 58.75 C17 61 17 61 17 63 C17.66 63 18.32 63 19 63 C22 68 22 68 22 71 C19.69 71 17.38 71 15 71 C14.33 69.88 13.66 68.75 13 67.62 C12.63 67 12.26 66.37 11.88 65.73 C11 64 11 64 11 62 C6 64 6 64 1 71 C-2.63 71 -6.26 71 -10 71 C-11.63 69.37 -11.04 67.38 -11.06 65.12 C-11.02 48.93 -7.04 35.07 1 21 C0.67 14.07 0.34 7.14 0 0 Z " fill="#F5EAD9" transform="translate(490,250)"/>
<path d="M0 0 C0.33 0 0.66 0 1 0 C1 27 1 27 -1 30 C-1.3 32.26 -1.51 34.42 -1.62 36.69 C-1.64 36.99 -1.64 36.99 -1.74 38.53 C-1.84 40.02 -1.92 41.51 -2 43 C-0.35 43 1.3 43 3 43 C3.06 42.63 3.06 42.63 3.38 40.75 C4.35 36.48 5.14 34.66 8.69 31.94 C14.61 28.31 19.93 25.86 27 27 C33.07 28.7 37.68 30.51 41 36 C41.33 36.66 41.66 37.32 42 38 C47.28 38 52.56 38 58 38 C58.33 36.02 58.66 34.04 59 32 C61.87 27.53 64.31 26.12 69 23 C85 23 85 23 95 29 C95.33 29.82 95.33 29.82 97 34 C101.95 34 106.9 34 112 34 C112.66 34.66 113.32 35.32 114 36 C108.94 37.04 104.17 37.08 99 37 C99 40.3 99 43.6 99 47 C91.68 58.77 91.68 58.77 85 61 C82.88 61.12 80.75 61.18 78.62 61.19 C77.5 61.2 76.38 61.22 75.23 61.23 C71.16 60.94 68.34 60.23 65.3 57.45 C60.99 52.13 57.81 48.01 57 41 C55.38 40.97 53.75 40.95 52.12 40.94 C51.22 40.93 50.32 40.91 49.38 40.9 C47 41 47 41 45 42 C43.68 46.95 42.36 51.9 41 57 C39.95 58.11 38.9 59.23 37.81 60.38 C37.52 60.69 37.52 60.69 36.02 62.27 C31.12 66.46 26.05 66.37 19.87 66.25 C13.23 65.68 9.22 61.93 5 57 C2.48 53.45 2.84 50.22 3 46 C1.35 46 -0.3 46 -2 46 C-2 49.3 -2 52.6 -2 56 C-2.66 55.67 -3.32 55.34 -4 55 C-3.93 54.41 -3.86 53.83 -3.78 53.23 C-2.8 44.15 -2.9 35.12 -3 26 C-2.34 25.01 -1.68 24.02 -1 23 C-0.67 15.41 -0.34 7.82 0 0 Z M61 32 C60.06 35.16 59.89 37.97 59.94 41.25 C59.95 42.14 59.96 43.03 59.96 43.95 C60.04 48.07 63.55 51.83 66 55 C70.73 58.44 76.24 59.18 82 59 C90.02 57.14 90.02 57.14 92.88 53.81 C93.05 53.61 93.05 53.61 93.93 52.58 C96.65 48.56 97.24 44.98 97.12 40.19 C97.11 39.21 97.09 38.24 97.07 37.23 C96.97 34.02 95.08 32.29 93 30 C82.32 20.88 71.29 24.61 61 32 Z M9 34 C5.16 38.04 3.9 42.48 4 48 C4.66 52.91 6.41 56.51 10 60 C15.32 63.69 20.57 65.16 27 64 C29.83 62.91 32.41 61.58 35 60 C35.33 59.01 35.66 58.02 36 57 C36.66 57 37.32 57 38 57 C40.63 51.74 41.41 47.85 41 42 C40.23 40.73 39.46 39.46 38.69 38.19 C38.26 37.48 37.83 36.77 37.39 36.04 C34.93 32.43 33.23 30.87 29 30 C26.57 29.93 24.18 29.91 21.75 29.94 C21.43 29.94 21.43 29.94 19.78 29.95 C15.08 29.99 12.66 31.12 9 34 Z " fill="#654C34" transform="translate(467,134)"/>
<path d="M0 0 C0.33 0 0.66 0 1 0 C1 180.84 1 361.68 1 548 C0.67 548 0.34 548 0 548 C-0.33 431.84 -0.66 315.68 -1 196 C-1.33 196 -1.66 196 -2 196 C-2.33 193.36 -2.66 190.72 -3 188 C-2.01 188.33 -1.02 188.66 0 189 C-0.07 188.1 -0.14 187.2 -0.22 186.28 C-0.87 177.57 -1.13 168.92 -1.08 160.19 C-1.06 158.02 -1.06 155.86 -1.05 153.69 C-1.04 149.11 -1.02 144.52 -1 139.94 C-0.98 134.59 -0.96 129.23 -0.94 123.88 C-0.94 121.76 -0.93 119.63 -0.91 117.51 C-0.91 116.2 -0.91 114.9 -0.9 113.59 C-0.9 113.03 -0.9 113.03 -0.89 110.16 C-1 107.03 -1.41 104.08 -2 101 C-2.66 100.67 -3.32 100.34 -4 100 C-3.01 98.68 -2.02 97.36 -1 96 C-1.99 95.34 -2.98 94.68 -4 94 C-2.68 94 -1.36 94 0 94 C0 62.98 0 31.96 0 0 Z " fill="#171717" transform="translate(47,48)"/>
<path d="M0 0 C1 2 1 2 0.01 5 C-1.14 9.04 -1.23 12.77 -1.12 16.94 C-1.12 17.28 -1.12 17.28 -1.1 19.01 C-1.07 20.67 -1.04 22.34 -1 24 C-0.38 23.82 0.24 23.65 0.88 23.47 C3.31 22.93 4.61 23.4 7 24 C7.58 23.85 8.16 23.7 8.76 23.55 C14.28 22.2 21.42 21.83 26.62 24.38 C29 26 29 26 31 28 C31.17 28.99 31.17 28.99 32 34 C28 35 28 35 25.5 34 C19.19 31.98 14.63 32.45 8.69 35.44 C7.87 35.89 7.05 36.34 6.2 36.81 C4 38 4 38 1 39 C0.01 41.97 -0.98 44.94 -2 48 C-3.65 48 -5.3 48 -7 48 C-7 35 -7 35 -5 32 C-4.67 22.76 -4.34 13.52 -4 4 C-2.68 2.68 -1.36 1.36 0 0 Z " fill="#EAC099" transform="translate(472,129)"/>
<path d="M0 0 C3.9 1.59 6.15 3.99 9 7 C9.16 7.16 9.16 7.16 10 8 C10.43 17.01 9.74 21.9 4 29 C2.68 28.67 1.36 28.34 0 28 C0 27.01 0 26.02 0 25 C-0.66 24.67 -1.32 24.34 -2 24 C-1.01 23.67 -0.02 23.34 1 23 C1 21.35 1 19.7 1 18 C0.52 18.08 0.52 18.08 -1.94 18.5 C-6.29 19.13 -10.61 19.09 -15 19 C-15 18.34 -15 17.68 -15 17 C-17.64 16.67 -20.28 16.34 -23 16 C-20.43 11.65 -17.95 7.74 -13 6 C-8.37 5.26 -3.68 5.13 1 5 C0.67 3.35 0.34 1.7 0 0 Z " fill="#ECC19A" transform="translate(554,161)"/>
<path d="M0 0 C0.11 0.57 0.22 1.14 0.34 1.73 C1.07 4.25 2.14 6.06 3.56 8.25 C4.02 8.96 4.47 9.66 4.94 10.39 C5.29 10.92 5.64 11.45 6 12 C6.05 14.4 6.09 16.79 6.12 19.19 C6.13 19.52 6.13 19.52 6.18 21.23 C6.22 25.29 5.84 28.28 4 32 C3.01 32.16 3.01 32.16 -2 33 C-3.65 34.98 -5.3 36.96 -7 39 C-7.66 39 -8.32 39 -9 39 C-9 32.73 -9 26.46 -9 20 C-9.99 20 -10.98 20 -12 20 C-10 9 -10 9 -5 4 C-3.35 3.67 -1.7 3.34 0 3 C0 2.01 0 1.02 0 0 Z " fill="#F5C093" transform="translate(596,160)"/>
<path d="M0 0 C1.32 0 2.64 0 4 0 C4.3 0.59 4.61 1.18 4.92 1.79 C5.34 2.58 5.76 3.37 6.19 4.19 C6.39 4.58 6.39 4.58 7.42 6.54 C8.95 8.92 10.65 10.71 12.68 12.66 C14.99 15.01 16.88 17.66 18.81 20.31 C19.02 20.59 19.02 20.59 20.04 21.98 C21.03 23.32 22.02 24.66 23 26 C22.84 26.5 22.84 26.5 22 29 C17.55 26.51 13.66 23.49 9.69 20.31 C9.04 19.8 8.4 19.29 7.73 18.76 C6.15 17.51 4.58 16.26 3 15 C-1.32 16.24 -4.14 17.61 -7.62 20.56 C-10.41 22.91 -12.38 24.4 -16 25 C-15.46 20.69 -13.98 18.2 -11.38 14.75 C-11.2 14.51 -11.2 14.51 -10.3 13.32 C-9.21 11.87 -8.11 10.44 -7 9 C-6.31 8.1 -5.62 7.21 -4.91 6.29 C-3.29 4.18 -1.65 2.09 0 0 Z " fill="#D1C5AF" transform="translate(497,312)"/>
<path d="M0 0 C3.43 1.43 4.82 2.13 6.95 5.31 C7.61 4.65 8.27 3.99 8.95 3.31 C9.36 9.17 8.57 13.06 5.95 18.31 C3.95 16.31 3.95 16.31 2.95 12.31 C1.3 12.31 -0.35 12.31 -2.05 12.31 C-2.38 12.97 -2.71 13.63 -3.05 14.31 C-5.03 14.64 -7.01 14.97 -9.05 15.31 C-9.05 14.65 -9.05 13.99 -9.05 13.31 C-8.39 13.31 -7.73 13.31 -7.05 13.31 C-7.38 12.65 -7.71 11.99 -8.05 11.31 C-9.7 10.98 -11.35 10.65 -13.05 10.31 C-13.05 9.32 -13.05 8.33 -13.05 7.31 C-15.03 7.64 -17.01 7.97 -19.05 8.31 C-19.05 6.99 -19.05 5.67 -19.05 4.31 C-12.7 0.19 -7.51 -2.51 0 0 Z " fill="#E7BF9A" transform="translate(499.0546875,172.6875)"/>
<path d="M0 0 C0.33 0 0.66 0 1 0 C1 27 1 27 -1 30 C-1.3 32.26 -1.51 34.42 -1.62 36.69 C-1.64 36.99 -1.64 36.99 -1.74 38.53 C-1.84 40.02 -1.92 41.51 -2 43 C-0.35 43 1.3 43 3 43 C3.06 42.63 3.06 42.63 3.38 40.75 C4.36 36.4 5.41 34.24 9.12 31.75 C10.07 31.17 11.02 30.59 12 30 C12.99 30.33 13.98 30.66 15 31 C14.09 31.5 13.19 31.99 12.25 32.5 C8.28 35.1 6.77 38.72 5 43 C5.47 54.81 5.47 54.81 10 59 C14.6 62.33 19.09 63.64 24.75 63.41 C28.55 62.72 31.72 61 35 59 C35.17 58.67 35.17 58.67 36 57 C36.66 57 37.32 57 38 57 C39.56 52 40.49 47.21 41 42 C41.99 42 42.98 42 44 42 C43.74 44.68 43.39 47.34 43 50 C42.91 50.61 42.82 51.22 42.73 51.84 C41.61 57.22 38.31 60.72 34 64 C28.24 66.88 21.33 67.06 15.1 65.54 C10.37 63.41 6.58 59.23 3.62 55.06 C2.69 51.99 2.88 49.2 3 46 C1.35 46 -0.3 46 -2 46 C-2 49.3 -2 52.6 -2 56 C-2.66 55.67 -3.32 55.34 -4 55 C-3.93 54.41 -3.86 53.83 -3.78 53.23 C-2.8 44.15 -2.9 35.12 -3 26 C-2.34 25.01 -1.68 24.02 -1 23 C-0.67 15.41 -0.34 7.82 0 0 Z " fill="#5F4832" transform="translate(467,134)"/>
<path d="M0 0 C13.15 0 13.15 0 20 6 C21.26 8.2 21.26 8.2 22 10 C20.97 9.84 19.94 9.67 18.88 9.5 C8.63 8.23 -1.77 8.95 -12 10 C-11 5 -11 5 -9 3 C-7.51 2.84 -7.51 2.84 0 2 C0 1.34 0 0.68 0 0 Z " fill="#443A30" transform="translate(541,146)"/>
<path d="M0 0 C0 8.91 0 17.82 0 27 C5.61 27.33 11.22 27.66 17 28 C17 28.66 17 29.32 17 30 C11.77 33.31 7.13 33.75 1 33 C-1.54 32.21 -3.63 31.24 -6 30 C-6.24 23.58 -5.92 17.36 -5.06 11 C-4.98 10.35 -4.89 9.71 -4.8 9.04 C-4.4 6.23 -3.9 3.7 -3 1 C-1 0 -1 0 0 0 Z " fill="#DA9D71" transform="translate(513,180)"/>
<path d="M0 0 C0.33 0 0.66 0 1 0 C1.07 0.48 1.15 0.97 1.23 1.47 C2.25 6.7 4.18 10.05 7.56 14.14 C11.85 19.68 11.55 25.15 12 32 C6.72 32 1.44 32 -4 32 C-4.33 30.68 -4.66 29.36 -5 28 C-3.68 28.33 -2.36 28.66 -1 29 C-1 28.01 -1 27.02 -1 26 C-0.34 26 0.32 26 1 26 C0.67 24.02 0.34 22.04 0 20 C0.66 20 1.32 20 2 20 C2 21.32 2 22.64 2 24 C2.66 24 3.32 24 4 24 C3 14 3 14 -2 9 C-2.33 7.68 -2.66 6.36 -3 5 C-2.01 5 -1.02 5 0 5 C0 3.35 0 1.7 0 0 Z " fill="#E7BE98" transform="translate(568,136)"/>
<path d="M0 0 C-5.01 5.79 -11.51 8.55 -19.16 9.18 C-21.69 9.24 -24.22 9.28 -26.75 9.31 C-27.62 9.34 -28.49 9.37 -29.38 9.4 C-35.54 9.46 -39.77 8.25 -45 5 C-45 4.34 -45 3.68 -45 3 C-44.17 3.02 -43.35 3.03 -42.5 3.05 C-39.38 3.1 -36.27 3.14 -33.16 3.16 C-31.82 3.18 -30.48 3.2 -29.14 3.23 C-19.96 3.4 -7.81 -1.95 0 0 Z " fill="#C48258" transform="translate(546,222)"/>
<path d="M0 0 C2.25 1.5 2.25 1.5 3.25 4.5 C2.61 4.61 1.98 4.71 1.33 4.82 C-1.58 5.31 -4.48 5.81 -7.38 6.31 C-8.37 6.48 -9.37 6.64 -10.4 6.81 C-15.73 7.75 -20.04 8.84 -24.75 11.5 C-25.41 11.5 -26.07 11.5 -26.75 11.5 C-26.43 6.15 -23.25 3.22 -19.75 -0.5 C-13.69 -2.3 -5.76 -2.92 0 0 Z " fill="#4C4135" transform="translate(498.75,153.5)"/>
<path d="M0 0 C7.59 0 15.18 0 23 0 C21.47 2.73 19.94 5.47 18.41 8.2 C17.23 10.54 16.48 12.45 16 15 C11.66 13.64 9.19 11.46 6.31 8.06 C5.92 7.62 5.53 7.18 5.13 6.72 C3.24 4.56 1.6 2.4 0 0 Z " fill="#E3E2E0" transform="translate(558,321)"/>
<path d="M0 0 C0.33 0 0.66 0 1 0 C1 1.98 1 3.96 1 6 C1.66 6 2.32 6 3 6 C3.51 8.06 4.01 10.12 4.5 12.19 C4.64 12.77 4.79 13.34 4.93 13.94 C5.75 17.36 6.16 20.48 6 24 C4.68 23.67 3.36 23.34 2 23 C1.52 22.02 1.04 21.05 0.54 20.04 C-0.1 18.76 -0.74 17.47 -1.38 16.19 C-1.69 15.54 -2.01 14.9 -2.34 14.24 C-2.65 13.62 -2.95 13 -3.27 12.36 C-3.56 11.78 -3.84 11.21 -4.13 10.63 C-5 9.01 -5.96 7.51 -7 6 C-7 4.68 -7 3.36 -7 2 C-4.61 2.58 -2.33 3.22 0 4 C0 2.68 0 1.36 0 0 Z " fill="#D5966A" transform="translate(462,184)"/>
<path d="M0 0 C-1 4 -1 4 -5 8 C-4.67 8.99 -4.34 9.98 -4 11 C-3.93 12.73 -3.92 14.46 -3.94 16.19 C-3.95 17.09 -3.96 17.99 -3.96 18.92 C-4 21 -4 21 -9 27 C-9.66 27 -10.32 27 -11 27 C-10.41 8.96 -10.41 8.96 -7 2 C-4 0 -4 0 0 0 Z " fill="#D39567" transform="translate(598,172)"/>
<path d="M0 0 C2.31 0 4.62 0 7 0 C14 8 14 8 14 10 C8.06 10 2.12 10 -4 10 C-3 3 -3 3 0 0 Z " fill="#D6C8B1" transform="translate(542,311)"/>
<path d="M0 0 C0.33 1.32 0.66 2.64 1 4 C0.67 4.33 0.34 4.66 0 5 C0 14.57 0 24.14 0 34 C0.99 34 1.98 34 3 34 C3 42 3 42 1.53 43.58 C-3.8 49.43 -8.45 55.53 -13 62 C-14.65 62.66 -16.3 63.32 -18 64 C-16.95 60.86 -15.71 59.64 -13.38 57.4 C-11.08 55.06 -9.18 52.45 -7.25 49.81 C-6.85 49.28 -6.45 48.75 -6.04 48.2 C-3.36 44.59 -1.87 42.5 -1.89 38.01 C-1.89 37.6 -1.89 37.6 -1.89 35.52 C-1.89 34.64 -1.9 33.75 -1.9 32.84 C-1.9 31.93 -1.91 31.02 -1.91 30.09 C-1.91 27.18 -1.92 24.28 -1.94 21.38 C-1.94 19.41 -1.95 17.44 -1.95 15.48 C-1.96 10.65 -1.98 5.83 -2 1 C-1.34 0.67 -0.68 0.34 0 0 Z " fill="#EEC6A3" transform="translate(579,223)"/>
<path d="M0 0 C0.66 0 1.32 0 2 0 C1 6 1 6 0 7 C-0.08 8.11 -0.16 9.23 -0.25 10.38 C-0.88 15.62 -2.89 20.2 -5 25 C-5.66 24.67 -6.32 24.34 -7 24 C-8.32 26.31 -9.64 28.62 -11 31 C-11.99 30.67 -12.98 30.34 -14 30 C-13.42 25.84 -12.02 23.05 -9.81 19.5 C-6 13.23 -2.95 6.71 0 0 Z " fill="#DED2BE" transform="translate(588,306)"/>
<path d="M0 0 C0.38 -0 0.38 -0 2.3 -0.03 C7.73 0 12.38 0.42 16.74 3.98 C17.32 4.6 17.9 5.23 18.5 5.88 C19.1 6.51 19.69 7.14 20.3 7.79 C20.74 8.27 21.18 8.75 21.62 9.25 C21.29 10.9 20.97 12.55 20.62 14.25 C18.62 12.25 18.62 12.25 17.19 9.81 C15.81 7.56 14.51 6.05 12.62 4.25 C12.18 4.26 12.18 4.26 9.93 4.28 C6.63 4.32 3.33 4.34 0.03 4.36 C-1.4 4.37 -2.83 4.38 -4.26 4.4 C-6.31 4.43 -8.37 4.44 -10.42 4.45 C-10.74 4.45 -10.74 4.45 -12.35 4.48 C-15.88 4.48 -18.37 4.15 -21.38 2.25 C-14.21 0.68 -7.32 0.04 0 0 Z " fill="#E4BB97" transform="translate(544.375,111.75)"/>
<path d="M0 0 C2.82 1.09 5.4 2.45 8 4 C8 4.66 8 5.32 8 6 C5.69 5.34 3.38 4.68 1 4 C0.67 5.32 0.34 6.64 0 8 C-2.31 8.66 -4.62 9.32 -7 10 C-7.66 9.34 -8.32 8.68 -9 8 C-9 7.01 -9 6.02 -9 5 C-9.99 5.66 -10.98 6.32 -12 7 C-12.99 7 -13.98 7 -15 7 C-11.59 0.19 -6.9 -0.79 0 0 Z " fill="#3D332A" transform="translate(549,167)"/>
<path d="M0 0 C0.33 1.32 0.66 2.64 1 4 C0.67 4.5 0.67 4.5 -1 7 C-1.66 7 -2.32 7 -3 7 C-3 7.66 -3 8.32 -3 9 C-2.01 9 -1.02 9 0 9 C0 9.66 0 10.32 0 11 C-1.32 11.33 -2.64 11.66 -4 12 C-6.5 14.94 -7.47 17.18 -8 21 C-10.97 21.33 -13.94 21.66 -17 22 C-17.33 23.32 -17.66 24.64 -18 26 C-19.32 26.99 -20.64 27.98 -22 29 C-22.66 28.67 -23.32 28.34 -24 28 C-22.68 26.35 -21.36 24.7 -20 23 C-19.34 23 -18.68 23 -18 23 C-17.34 21.68 -16.68 20.36 -16 19 C-15.01 18.67 -14.02 18.34 -13 18 C-12.81 17.34 -12.63 16.68 -12.44 16 C-10.71 12.4 -8.42 9.88 -5.75 6.94 C-3.73 4.7 -1.86 2.38 0 0 Z " fill="#FAE5CC" transform="translate(579,267)"/>
<path d="M0 0 C0.33 0 0.66 0 1 0 C1 27 1 27 -1 30 C-1.3 32.26 -1.51 34.42 -1.62 36.69 C-1.64 36.99 -1.64 36.99 -1.74 38.53 C-1.84 40.02 -1.92 41.51 -2 43 C-0.35 43 1.3 43 3 43 C3.06 42.63 3.06 42.63 3.38 40.75 C4.36 36.4 5.41 34.24 9.12 31.75 C10.07 31.17 11.02 30.59 12 30 C12.99 30.33 13.98 30.66 15 31 C14.09 31.5 13.19 31.99 12.25 32.5 C8.31 35.14 6.44 38.54 5 43 C4.71 45.45 4.79 47.52 5 50 C4.34 50.99 3.68 51.98 3 53 C3 50.69 3 48.38 3 46 C1.35 46 -0.3 46 -2 46 C-2 49.3 -2 52.6 -2 56 C-2.66 55.67 -3.32 55.34 -4 55 C-3.93 54.41 -3.86 53.83 -3.78 53.23 C-2.8 44.15 -2.9 35.12 -3 26 C-2.34 25.01 -1.68 24.02 -1 23 C-0.67 15.41 -0.34 7.82 0 0 Z " fill="#705740" transform="translate(467,134)"/>
<path d="M0 0 C1.98 0 3.96 0 6 0 C6 1.32 6 2.64 6 4 C6.99 4 7.98 4 9 4 C7.12 9.75 7.12 9.75 6 12 C6.99 12.33 7.98 12.66 9 13 C9 13.66 9 14.32 9 15 C8.46 14.91 8.46 14.91 5.75 14.44 C2.89 14.02 0.76 14.01 -2 15 C-2 14.34 -2 13.68 -2 13 C-1.01 12.34 -0.02 11.68 1 11 C-1 8 -1 8 -6 6 C-5.67 5.34 -5.34 4.68 -5 4 C-3.35 4.33 -1.7 4.66 0 5 C0 3.35 0 1.7 0 0 Z " fill="#151515" transform="translate(32,140)"/>
<path d="M0 0 C0.33 0 0.66 0 1 0 C1 9.53 0.09 13.74 -6.41 20.45 C-10.56 23.85 -14.16 24.16 -19.38 24.19 C-20.5 24.2 -21.62 24.22 -22.77 24.23 C-25.95 24 -28.14 23.35 -31 22 C-31.33 20.68 -31.66 19.36 -32 18 C-31.38 18.23 -30.77 18.46 -30.13 18.69 C-23.95 20.79 -19.38 21.23 -13 20 C-11.81 19.81 -10.63 19.62 -9.44 19.44 C-9.04 19.37 -9.04 19.37 -7 19 C-6.73 18.46 -6.46 17.93 -6.19 17.38 C-5.49 15.98 -5.49 15.98 -2 9 C-1.34 9 -0.68 9 0 9 C0 6.03 0 3.06 0 0 Z " fill="#654C34" transform="translate(565,171)"/>
<path d="M0 0 C6.07 1.66 10.69 3.53 14 9 C14.33 9.66 14.66 10.32 15 11 C18.96 11.33 22.92 11.66 27 12 C27 12.33 27 12.66 27 13 C25.06 13.36 23.13 13.72 21.19 14.06 C20.11 14.26 19.03 14.46 17.92 14.66 C15 15 15 15 12 14 C11.57 13.07 11.13 12.14 10.69 11.19 C9.44 8.68 8.15 6.85 6 5 C2.3 3.89 -1.42 3.67 -5.25 3.44 C-5.9 3.39 -6.55 3.35 -7.22 3.31 C-8.81 3.2 -10.41 3.1 -12 3 C-7.57 -0.33 -5.26 -0.53 0 0 Z " fill="#6B533C" transform="translate(494,161)"/>
<path d="M0 0 C0.33 0.66 0.66 1.32 1 2 C3.64 2 6.28 2 9 2 C9 2.33 9 2.66 9 3 C6.03 3 3.06 3 0 3 C0 3.66 0 4.32 0 5 C2.31 5 4.62 5 7 5 C7 7.97 7 10.94 7 14 C5.68 14.33 4.36 14.66 3 15 C3 14.34 3 13.68 3 13 C1.68 12.67 0.36 12.34 -1 12 C-1.33 12.99 -1.66 13.98 -2 15 C-2 12.69 -2 10.38 -2 8 C-2.99 8.33 -3.98 8.66 -5 9 C-5 8.34 -5 7.68 -5 7 C-4.34 7 -3.68 7 -3 7 C-2.67 5.68 -2.34 4.36 -2 3 C-2.99 2.67 -3.98 2.34 -5 2 C-3.35 1.34 -1.7 0.68 0 0 Z " fill="#151515" transform="translate(15,140)"/>
<path d="M0 0 C0.82 0.5 0.82 0.5 5 3 C5 3.33 5 3.66 5 4 C3.35 4 1.7 4 0 4 C-0.33 5.65 -0.66 7.3 -1 9 C-2.98 9 -4.96 9 -7 9 C-7.66 7.68 -8.32 6.36 -9 5 C-13.75 5.88 -13.75 5.88 -16 7 C-14.76 3.29 -13.38 2.8 -10.09 0.89 C-6.74 -0.54 -3.57 -0.33 0 0 Z " fill="#3C3229" transform="translate(497,172)"/>
<path d="M0 0 C1.46 0.75 2.93 1.5 4.39 2.25 C4.39 2.91 4.39 3.57 4.39 4.25 C1.42 4.31 -1.56 4.34 -4.54 4.37 C-4.96 4.38 -4.96 4.38 -7.06 4.42 C-12.84 4.47 -18.03 3.74 -23.61 2.25 C-21.61 0.25 -21.61 0.25 -18.65 0.06 C-17.36 -0.02 -16.08 -0.11 -14.79 -0.19 C-14.15 -0.23 -13.51 -0.27 -12.85 -0.31 C-2.19 -1.03 -2.19 -1.03 0 0 Z " fill="#262827" transform="translate(504.60546875,89.75390625)"/>
<path d="M0 0 C3 2 3 2 3.44 4.13 C4.95 12.2 5.22 19.82 5 28 C-0.48 21.99 -0.15 15.94 -0.06 8.12 C-0.06 7.34 -0.05 6.56 -0.05 5.75 C-0.04 3.83 -0.02 1.92 0 0 Z " fill="#ECC39D" transform="translate(494,266)"/>
<path d="M0 0 C0.66 0 1.32 0 2 0 C7.9 9.34 8.05 17.74 6.19 28.44 C5.15 32.93 4.01 37.36 0.31 40.38 C-0.12 40.58 -0.55 40.79 -1 41 C-0.86 40.3 -0.71 39.6 -0.56 38.88 C0.01 35.92 0.52 32.97 1 30 C1.66 29.67 2.32 29.34 3 29 C4.18 25.25 4.22 21.52 4.25 17.62 C4.27 16.98 4.29 16.33 4.31 15.66 C4.35 10.95 3.45 8.03 1 4 C0.34 3.34 -0.32 2.68 -1 2 C-0.67 1.34 -0.34 0.68 0 0 Z " fill="#EECAAA" transform="translate(597,162)"/>
<path d="M0 0 C0.66 1.32 1.32 2.64 2 4 C1.67 4.99 1.34 5.98 1 7 C0.44 6.86 -0.11 6.71 -0.69 6.56 C-10.24 4.24 -16.17 4.42 -25 9 C-25.99 8.67 -26.98 8.34 -28 8 C-22.36 3.23 -15.7 2.48 -8.62 1.38 C-7.79 1.24 -6.96 1.11 -6.11 0.97 C-4.07 0.64 -2.04 0.32 0 0 Z " fill="#D4B79C" transform="translate(502,157)"/>
<path d="M0 0 C4.82 0.02 8.96 0.67 13.57 2.14 C13.24 2.31 13.24 2.31 11.57 3.14 C11.9 4.13 12.23 5.12 12.57 6.14 C11.58 6.8 10.59 7.46 9.57 8.14 C8.7 7.5 7.84 6.86 6.94 6.2 C1.39 2.95 -5.16 3.31 -11.43 3.14 C-7.64 -0.65 -5.03 0.04 0 0 Z " fill="#E5BC9B" transform="translate(549.43017578125,153.859375)"/>
<path d="M0 0 C0 1.65 0 3.3 0 5 C-1.98 5 -3.96 5 -6 5 C-7.65 6.32 -9.3 7.64 -11 9 C-12.65 8.67 -14.3 8.34 -16 8 C-16 6.68 -16 5.36 -16 4 C-4 -1 -4 -1 0 0 Z " fill="#373736" transform="translate(496,74)"/>
<path d="M0 0 C0 0.99 0 1.98 0 3 C-2.44 3.74 -4.88 4.47 -7.32 5.2 C-8.91 5.67 -10.5 6.15 -12.08 6.64 C-15.13 7.57 -17.81 8.26 -21 8 C-16.97 -0.07 -8.3 -0.62 0 0 Z " fill="#E2B892" transform="translate(501,117)"/>
<path d="M0 0 C0.66 1.32 1.32 2.64 2 4 C4.64 3.34 7.28 2.68 10 2 C9.67 2.99 9.34 3.98 9 5 C9.66 5.66 10.32 6.32 11 7 C8.12 7.96 6.3 8.11 3.31 8.06 C2.91 8.06 2.91 8.06 0.86 8.04 C0.56 8.03 0.56 8.03 -1 8 C-1 7.34 -1 6.68 -1 6 C-3.64 5.67 -6.28 5.34 -9 5 C-5.95 0.93 -4.9 0 0 0 Z " fill="#E4BD99" transform="translate(540,172)"/>
<path d="M0 0 C1.65 0 3.3 0 5 0 C5.08 1.01 5.17 2.02 5.25 3.06 C5.83 7.31 7.69 10.46 10 14 C8.68 14 7.36 14 6 14 C5.67 13.34 5.34 12.68 5 12 C3.35 12 1.7 12 0 12 C0 8.04 0 4.08 0 0 Z " fill="#E9C29D" transform="translate(465,180)"/>
<path d="M0 0 C0.33 0 0.66 0 1 0 C1 10.23 1 20.46 1 31 C1.66 31 2.32 31 3 31 C3.33 32.98 3.66 34.96 4 37 C2.02 36.67 0.04 36.34 -2 36 C-2 31.71 -2 27.42 -2 23 C-1.34 23 -0.68 23 0 23 C0 15.41 0 7.82 0 0 Z " fill="#B3B1B0" transform="translate(599,124)"/>
<path d="M0 0 C0.33 0 0.66 0 1 0 C1 1.98 1 3.96 1 6 C1.66 6 2.32 6 3 6 C3 7.98 3 9.96 3 12 C0.61 11.42 -1.67 10.78 -4 10 C-4.33 11.32 -4.66 12.64 -5 14 C-6.03 10.91 -5.97 9.47 -5.56 6.31 C-5.46 5.5 -5.36 4.7 -5.25 3.86 C-5.17 3.25 -5.09 2.63 -5 2 C-3.35 2 -1.7 2 0 2 C0 1.34 0 0.68 0 0 Z " fill="#EEBD91" transform="translate(459,176)"/>
<path d="M0 0 C0 0.66 0 1.32 0 2 C-0.99 2.33 -1.98 2.66 -3 3 C-3.82 2.51 -4.63 2.02 -5.48 1.51 C-9.42 -0.46 -13.04 -0.34 -17.38 -0.19 C-18.11 -0.17 -18.85 -0.16 -19.61 -0.15 C-21.4 -0.11 -23.2 -0.06 -25 0 C-25 -0.66 -25 -1.32 -25 -2 C-20 -3 -20 -3 -18 -2 C-18 -2.66 -18 -3.32 -18 -4 C-10 -5 -10 -5 0 0 Z " fill="#ECC099" transform="translate(504,153)"/>
<path d="M0 0 C0.66 1.32 1.32 2.64 2 4 C-3.71 4.99 -9.21 5.1 -15 5 C-15 4.01 -15 3.02 -15 2 C-15.99 1.67 -16.98 1.34 -18 1 C-15.94 0.83 -13.88 0.66 -11.81 0.5 C-11.24 0.45 -11.24 0.45 -8.33 0.22 C-5.54 0.04 -2.8 -0.04 0 0 Z " fill="#3F372E" transform="translate(500,154)"/>
<path d="M0 0 C1.98 0 3.96 0 6 0 C5.81 0.72 5.63 1.44 5.44 2.19 C4.98 5.15 5.39 7.1 6 10 C5.67 10.99 5.34 11.98 5 13 C3.35 13 1.7 13 0 13 C0 8.71 0 4.42 0 0 Z " fill="#F2C8A1" transform="translate(465,164)"/>
<path d="M0 0 C0.33 0 0.66 0 1 0 C1.03 0.7 1.05 1.39 1.08 2.11 C1.19 5.28 1.31 8.45 1.44 11.62 C1.48 12.72 1.52 13.81 1.56 14.94 C1.6 16 1.64 17.07 1.68 18.16 C1.72 19.14 1.76 20.11 1.79 21.12 C2.01 24.13 2.46 27.03 3 30 C2.01 30 1.02 30 0 30 C-1.08 26.76 -1.11 24.42 -1.1 21.02 C-1.1 20.45 -1.09 19.87 -1.09 19.28 C-1.09 17.46 -1.08 15.64 -1.06 13.81 C-1.06 12.57 -1.05 11.33 -1.05 10.1 C-1.02 1.02 -1.02 1.02 0 0 Z " fill="#EDDBCB" transform="translate(579,227)"/>
<path d="M0 0 C0.66 0.33 1.32 0.66 2 1 C0.37 7.75 0.37 7.75 -3 10 C-3.33 10.99 -3.66 11.98 -4 13 C-7.4 15.09 -10.05 15.18 -14 15 C-13.67 14.01 -13.34 13.02 -13 12 C-11.97 11.5 -10.94 11.01 -9.88 10.5 C-5.36 7.96 -2.82 4.25 0 0 Z " fill="#ECC19A" transform="translate(565,182)"/>
<path d="M0 0 C1.32 0.99 2.64 1.98 4 3 C4 3.66 4 4.32 4 5 C2.35 5 0.7 5 -1 5 C-1 7.97 -1 10.94 -1 14 C-1.33 14.33 -1.66 14.66 -2 15 C-2.11 19.47 -1.7 23.6 -1 28 C-3.13 24.87 -4.13 22.9 -4.1 19.09 C-4.09 18.33 -4.09 17.56 -4.09 16.78 C-4.08 15.99 -4.07 15.19 -4.06 14.38 C-4.06 13.57 -4.05 12.77 -4.05 11.95 C-4.01 6.02 -4.01 6.02 0 0 Z " fill="#EFC6A2" transform="translate(455,173)"/>
<path d="M0 0 C5.93 2.37 9.68 6.38 14 11 C13.34 11.66 12.68 12.32 12 13 C11.34 12.34 10.68 11.68 10 11 C8.27 10.37 8.27 10.37 6.38 9.88 C5.26 9.59 4.15 9.3 3 9 C0 3.38 0 3.38 0 0 Z " fill="#383737" transform="translate(579,96)"/>
<path d="M0 0 C1 1 1 1 1 6 C0.34 6.66 -0.32 7.32 -1 8 C-1.99 7.84 -1.99 7.84 -7 7 C-7.33 5.02 -7.66 3.04 -8 1 C-5 -1 -5 -1 0 0 Z " fill="#151515" transform="translate(69,9)"/>
<path d="M0 0 C0.99 0 1.98 0 3 0 C2.67 1.65 2.34 3.3 2 5 C2.66 4.84 3.32 4.67 4 4.5 C7.7 3.88 11.26 3.92 15 4 C14.46 4.25 13.93 4.5 13.38 4.75 C10.42 6.3 7.75 8.12 5 10 C3.68 10 2.36 10 1 10 C1 9.01 1 8.02 1 7 C0.34 7 -0.32 7 -1 7 C-1.33 5.68 -1.66 4.36 -2 3 C-1.34 2.01 -0.68 1.02 0 0 Z " fill="#EDC097" transform="translate(527,151)"/>
<path d="M0 0 C1.65 0.33 3.3 0.66 5 1 C5.33 2.65 5.66 4.3 6 6 C5.01 6.99 4.02 7.98 3 9 C1.35 8.67 -0.3 8.34 -2 8 C-2.33 6.35 -2.66 4.7 -3 3 C-2.01 2.01 -1.02 1.02 0 0 Z " fill="#151515" transform="translate(29,213)"/>
<path d="M0 0 C5 1 5 1 6 2 C6 3.65 6 5.3 6 7 C5.34 7.66 4.68 8.32 4 9 C3.01 8.84 3.01 8.84 -2 8 C-2 2 -2 2 0 0 Z " fill="#151515" transform="translate(30,8)"/>
<path d="M0 0 C4.55 1.58 7.85 3.25 11.43 6.48 C11.1 6.81 10.77 7.14 10.43 7.48 C8.12 7.48 5.81 7.48 3.43 7.48 C3.43 6.49 3.43 5.5 3.43 4.48 C2.44 4.15 1.45 3.82 0.43 3.48 C-0.56 4.47 -1.55 5.46 -2.57 6.48 C-2.9 6.15 -3.23 5.82 -3.57 5.48 C-3.57 3.83 -3.57 2.18 -3.57 0.48 C-1.57 -0.52 -1.57 -0.52 0 0 Z " fill="#2C3C5B" transform="translate(651.57421875,298.515625)"/>
<path d="M0 0 C0.35 0 0.35 0 2.14 0.01 C3.89 0.03 5.63 0.04 7.38 0.06 C7.38 0.72 7.38 1.38 7.38 2.06 C3.6 3.81 0.71 4.29 -3.44 4.19 C-3.93 4.18 -3.93 4.18 -6.39 4.13 C-7.13 4.11 -7.87 4.09 -8.62 4.06 C-8.96 3.07 -9.28 2.08 -9.62 1.06 C-6.56 -0.47 -3.36 -0.04 0 0 Z " fill="#E6AE80" transform="translate(525.625,235.9375)"/>
<path d="M0 0 C0.33 0 0.66 0 1 0 C1 5.61 1 11.22 1 17 C2.98 17 4.96 17 7 17 C7 17.33 7 17.66 7 18 C5.02 18 3.04 18 1 18 C1 21.3 1 24.6 1 28 C0.67 28 0.34 28 0 28 C-0.33 25.69 -0.66 23.38 -1 21 C-1.66 21 -2.32 21 -3 21 C-3 19.02 -3 17.04 -3 15 C-2.34 15 -1.68 15 -1 15 C-0.67 10.05 -0.34 5.1 0 0 Z " fill="#413021" transform="translate(463,161)"/>
<path d="M0 0 C0.33 0 0.66 0 1 0 C1.01 0.48 1.03 0.97 1.04 1.47 C1.12 3.69 1.22 5.91 1.31 8.12 C1.34 8.89 1.36 9.65 1.38 10.43 C1.62 15.45 2.58 18.62 5 23 C5 23.99 5 24.98 5 26 C4.01 26 3.02 26 2 26 C-0.68 19.93 -1.15 14.16 -1.06 7.62 C-1.06 6.98 -1.05 6.34 -1.05 5.68 C-1.01 1.01 -1.01 1.01 0 0 Z " fill="#EDDBCB" transform="translate(450,179)"/>
<path d="M0 0 C3.05 3.05 2.12 6.61 2.12 10.81 C1.91 16.27 0.77 21.25 -2 26 C-2.66 26 -3.32 26 -4 26 C-3.88 25.55 -3.76 25.1 -3.63 24.63 C-1.64 16.53 -0.89 8.27 0 0 Z " fill="#EBDED3" transform="translate(604,173)"/>
<path d="M0 0 C0.33 0 0.66 0 1 0 C1 27 1 27 -1 30 C-1.3 32.26 -1.51 34.42 -1.62 36.69 C-1.64 36.99 -1.64 36.99 -1.74 38.53 C-1.84 40.02 -1.92 41.51 -2 43 C-2.33 43 -2.66 43 -3 43 C-3 26 -3 26 -1 23 C-0.67 15.41 -0.34 7.82 0 0 Z " fill="#9D826A" transform="translate(467,134)"/>
<path d="M0 0 C3.63 0.33 7.26 0.66 11 1 C11 1.33 11 1.66 11 2 C11.99 2.17 11.99 2.17 17 3 C17 3.33 17 3.66 17 4 C13.65 4.2 10.29 4.38 6.94 4.56 C5.99 4.62 5.05 4.67 4.08 4.73 C-1.12 5 -5.87 4.96 -11 4 C-11 3.67 -11 3.34 -11 3 C-7.7 3 -4.4 3 -1 3 C-0.67 2.01 -0.34 1.02 0 0 Z " fill="#41362B" transform="translate(504,112)"/>
<path d="M0 0 C0.33 0.16 0.33 0.16 2 1 C3.78 8.3 4.26 15.13 4.12 22.62 C4.12 23.63 4.11 24.63 4.1 25.67 C4.07 28.11 4.04 30.56 4 33 C3.67 33 3.34 33 3 33 C2.94 32.1 2.88 31.19 2.82 30.26 C2.73 29.07 2.65 27.88 2.56 26.69 C2.52 26.09 2.48 25.5 2.44 24.88 C2.24 22.05 1.9 19.71 1 17 C0.86 15.67 0.75 14.33 0.68 12.99 C0.64 12.23 0.6 11.47 0.56 10.69 C0.52 9.91 0.48 9.12 0.44 8.31 C0.39 7.52 0.35 6.72 0.31 5.9 C0.2 3.93 0.1 1.97 0 0 Z " fill="#EEDDCD" transform="translate(490,250)"/>
<path d="M0 0 C0.99 0 1.98 0 3 0 C3 0.66 3 1.32 3 2 C2.34 2 1.68 2 1 2 C0.88 2.29 0.88 2.29 0.27 3.74 C-1.26 6.45 -3.04 8.12 -5.38 10.19 C-6.15 10.88 -6.92 11.58 -7.71 12.29 C-9.91 13.93 -11.32 14.59 -14 15 C-11.45 10.42 -8.92 7.14 -4.38 4.44 C-2.14 3.09 -1.19 2.27 0 0 Z " fill="#F3C9A3" transform="translate(558,288)"/>
<path d="M0 0 C3.63 0 7.26 0 11 0 C11 2.64 11 5.28 11 8 C7.7 7.67 4.4 7.34 1 7 C1 8.65 1 10.3 1 12 C1.66 12.33 2.32 12.66 3 13 C2.01 13 1.02 13 0 13 C0 9.7 0 6.4 0 3 C0.33 3.66 0.66 4.32 1 5 C3.64 5 6.28 5 9 5 C9 3.68 9 2.36 9 1 C6.03 1 3.06 1 0 1 C0 0.67 0 0.34 0 0 Z " fill="#191919" transform="translate(11,163)"/>
<path d="M0 0 C2.31 0 4.62 0 7 0 C6.67 0.66 6.34 1.32 6 2 C4.02 2 2.04 2 0 2 C0 3.98 0 5.96 0 8 C0.82 8.33 0.82 8.33 5 10 C5 9.01 5 8.02 5 7 C4.34 7 3.68 7 3 7 C3 6.34 3 5.68 3 5 C4.32 5 5.64 5 7 5 C7 6.98 7 8.96 7 11 C5.02 11.33 3.04 11.66 1 12 C-0.32 10.68 -1.64 9.36 -3 8 C-2 2 -2 2 0 0 Z " fill="#151515" transform="translate(12,5)"/>
<path d="M0 0 C4.19 -0.08 7.9 0.01 12 1 C12.05 1.29 12.05 1.29 12.3 2.76 C13.32 8.1 14.68 11.69 18 16 C17.67 16.99 17.34 17.98 17 19 C15.84 17.47 14.7 15.92 13.56 14.38 C12.92 13.52 12.29 12.66 11.63 11.77 C9.87 8.78 9.36 6.43 9 3 C7.51 2.67 7.51 2.67 0 1 C0 0.67 0 0.34 0 0 Z " fill="#553F2A" transform="translate(515,172)"/>
<path d="M0 0 C3.63 1.65 7.26 3.3 11 5 C9.68 6.32 8.36 7.64 7 9 C5.68 9 4.36 9 3 9 C2.34 9.66 1.68 10.32 1 11 C0.67 7.37 0.34 3.74 0 0 Z " fill="#2D3F5C" transform="translate(595,272)"/>
<path d="M0 0 C0.54 0 0.54 0 3.29 0.03 C5.81 0.06 5.81 0.06 7.81 2.06 C2.46 3.19 -2.73 3.16 -8.19 3.06 C-8.19 6.03 -8.19 9 -8.19 12.06 C-8.52 12.06 -8.85 12.06 -9.19 12.06 C-9.19 8.43 -9.19 4.8 -9.19 1.06 C-5.9 -0.03 -3.45 -0.04 0 0 Z " fill="#4E3A27" transform="translate(573.1875,167.9375)"/>
<path d="M0 0 C0.33 0 0.66 0 1 0 C1 18.6 1 18.6 -2 22 C-4.47 14.28 -2.27 7.48 0 0 Z " fill="#CFCDCB" transform="translate(483,288)"/>
<path d="M0 0 C0.66 0.33 1.32 0.66 2 1 C2.33 4.96 2.66 8.92 3 13 C-2.28 13 -7.56 13 -13 13 C-13 12.67 -13 12.34 -13 12 C-8.71 12 -4.42 12 0 12 C-0.33 8.7 -0.66 5.4 -1 2 C-0.67 1.34 -0.34 0.68 0 0 Z " fill="#C4A486" transform="translate(577,155)"/>
<path d="M0 0 C0.33 0 0.66 0 1 0 C1 7.59 1 15.18 1 23 C0.01 23.66 -0.98 24.32 -2 25 C-2.33 21.7 -2.66 18.4 -3 15 C-2.01 14.67 -1.02 14.34 0 14 C0 9.38 0 4.76 0 0 Z " fill="#1E1812" transform="translate(466,134)"/>
<path d="M0 0 C1.98 0 3.96 0 6 0 C8.43 7.43 8.43 7.43 7 11 C4.69 11.33 2.38 11.66 0 12 C0 10.02 0 8.04 0 6 C0.33 7.32 0.66 8.64 1 10 C2.32 9.67 3.64 9.34 5 9 C5 7.68 5 6.36 5 5 C4.34 4.67 3.68 4.34 3 4 C3.66 4 4.32 4 5 4 C5 3.01 5 2.02 5 1 C3.68 1 2.36 1 1 1 C0.67 2.32 0.34 3.64 0 5 C0 3.35 0 1.7 0 0 Z " fill="#141414" transform="translate(52,5)"/>
<path d="M0 0 C1 3 1 3 1 5 C2.65 5.33 4.3 5.66 6 6 C5.67 6.66 5.34 7.32 5 8 C2.69 8.66 0.38 9.32 -2 10 C-2.33 10.99 -2.66 11.98 -3 13 C-2.67 9.04 -2.34 5.08 -2 1 C-1.34 0.67 -0.68 0.34 0 0 Z " fill="#3A4A65" transform="translate(594,291)"/>
<path d="M0 0 C2.31 0 4.62 0 7 0 C7 0.33 7 0.66 7 1 C5.02 1 3.04 1 1 1 C1 3.97 1 6.94 1 10 C0.5 10.82 0.5 10.82 -2 15 C-2.33 15 -2.66 15 -3 15 C-3.36 9.29 -2.28 5.22 0 0 Z " fill="#ECDCCD" transform="translate(583,211)"/>
<path d="M0 0 C2.12 0.5 3.97 1.19 6 2 C6 2.66 6 3.32 6 4 C0.06 3.67 -5.88 3.34 -12 3 C-7.46 -0.4 -5.45 -0.33 0 0 Z " fill="#715B44" transform="translate(494,161)"/>
<path d="M0 0 C0.33 0.17 0.33 0.17 2 1 C2 1.66 2 2.32 2 3 C2.66 3 3.32 3 4 3 C4.82 4.56 5.63 6.12 6.44 7.69 C6.66 8.12 6.66 8.12 7.81 10.32 C8.96 12.91 9.56 15.21 10 18 C9.34 18 8.68 18 8 18 C6.66 15.76 5.32 13.51 4 11.25 C3.62 10.62 3.24 9.98 2.84 9.33 C2.48 8.71 2.12 8.09 1.75 7.45 C1.41 6.89 1.08 6.32 0.73 5.74 C-0.12 3.71 -0.13 2.18 0 0 Z " fill="#F1CAA6" transform="translate(499,295)"/>
<path d="M0 0 C0.99 0 1.98 0 3 0 C3.33 1.65 3.66 3.3 4 5 C2.35 5 0.7 5 -1 5 C-1 5.66 -1 6.32 -1 7 C0.65 7 2.3 7 4 7 C3.67 7.66 3.34 8.32 3 9 C1.35 8.67 -0.3 8.34 -2 8 C-2.33 6.35 -2.66 4.7 -3 3 C-2.01 2.01 -1.02 1.02 0 0 Z " fill="#161616" transform="translate(20,76)"/>
<path d="M0 0 C0.66 0 1.32 0 2 0 C2.33 1.98 2.66 3.96 3 6 C4.32 5.34 5.64 4.68 7 4 C7 4.66 7 5.32 7 6 C6.67 6.16 6.67 6.16 5 7 C5.51 9.17 6 11 7 13 C3.12 11.12 3.12 11.12 2 10 C1.34 10.99 0.68 11.98 0 13 C0 8.71 0 4.42 0 0 Z " fill="#151515" transform="translate(37,209)"/>
<path d="M0 0 C1.32 0.66 2.64 1.32 4 2 C4 2.66 4 3.32 4 4 C3.34 4 2.68 4 2 4 C1.34 6.97 0.68 9.94 0 13 C-1.32 13 -2.64 13 -4 13 C-4 10.36 -4 7.72 -4 5 C-3.34 5 -2.68 5 -2 5 C-2 6.32 -2 7.64 -2 9 C-1.34 9 -0.68 9 0 9 C0 6.03 0 3.06 0 0 Z " fill="#E3B68E" transform="translate(572,151)"/>
<path d="M0 0 C1.29 -0.03 2.58 -0.05 3.88 -0.06 C4.59 -0.07 5.31 -0.09 6.05 -0.1 C8 0 8 0 10 1 C9.67 2.32 9.34 3.64 9 5 C3 5 3 5 0 3 C0 2.01 0 1.02 0 0 Z " fill="#D6966A" transform="translate(508,207)"/>
<path d="M0 0 C0 1.32 0 2.64 0 4 C0.66 4 1.32 4 2 4 C2.33 5.65 2.66 7.3 3 9 C1.68 8.34 0.36 7.68 -1 7 C-1 6.01 -1 5.02 -1 4 C-1.99 4.66 -2.98 5.32 -4 6 C-4.99 6 -5.98 6 -7 6 C-5.49 2.51 -4.06 0 0 0 Z " fill="#503D2C" transform="translate(541,168)"/>
<path d="M0 0 C0.33 0 0.66 0 1 0 C1 7 1 7 -2 11 C-2.66 11 -3.32 11 -4 11 C-4 4 -4 4 -2 1 C-1.67 1.33 -1.34 1.66 -1 2 C-0.67 1.34 -0.34 0.68 0 0 Z " fill="#EDE6DC" transform="translate(483,305)"/>
<path d="M0 0 C0.66 0 1.32 0 2 0 C1 9 1 9 -1 11 C-1.66 9.84 -1.66 9.84 -5 4 C-4.67 3.01 -4.34 2.02 -4 1 C-4 1.66 -4 2.32 -4 3 C-2.68 3 -1.36 3 0 3 C0 2.01 0 1.02 0 0 Z " fill="#E8DFD8" transform="translate(604,161)"/>
<path d="M0 0 C4.11 1.87 6.93 3.58 10 7 C10 7.66 10 8.32 10 9 C7.36 8.67 4.72 8.34 2 8 C2.66 7.34 3.32 6.68 4 6 C3.67 5.34 3.34 4.68 3 4 C2.01 3.67 1.02 3.34 0 3 C0 2.01 0 1.02 0 0 Z " fill="#64503E" transform="translate(553,147)"/>
<path d="M0 0 C0.66 1.32 1.32 2.64 2 4 C2.66 4 3.32 4 4 4 C7 9 7 9 7 12 C5.68 12 4.36 12 3 12 C3 10.35 3 8.7 3 7 C2.34 7 1.68 7 1 7 C0.67 4.69 0.34 2.38 0 0 Z " fill="#FAE5CC" transform="translate(505,309)"/>
<path d="M0 0 C3.32 2.21 3.18 2.41 4.5 5.81 C4.64 6.17 4.64 6.17 5.34 7.96 C6 10 6 10 6 13 C5.01 12.67 4.02 12.34 3 12 C2.49 10.75 1.99 9.5 1.5 8.25 C1.22 7.55 0.94 6.86 0.66 6.14 C-0.01 3.97 -0.12 2.26 0 0 Z " fill="#EEDBCA" transform="translate(471,221)"/>
<path d="M0 0 C4.62 0 9.24 0 14 0 C9.4 2.3 7.45 3.12 2.38 3.06 C1.37 3.05 0.37 3.04 -0.66 3.04 C-1.43 3.02 -2.21 3.01 -3 3 C-2.01 2.01 -1.02 1.02 0 0 Z " fill="#AA9077" transform="translate(541,154)"/>
<path d="M0 0 C1.08 0.02 2.16 0.04 3.27 0.05 C3.68 0.07 3.68 0.07 5.75 0.12 C5.75 1.12 5.75 2.1 5.75 3.12 C0.47 2.79 -4.81 2.47 -10.25 2.12 C-6.14 0.07 -4.45 -0.1 0 0 Z " fill="#5D4B3B" transform="translate(489.25,151.875)"/>
<path d="M0 0 C4.25 1.63 6.95 4.76 10 8 C9.67 9.65 9.34 11.3 9 13 C7 11 7 11 5.62 8.62 C4 6 2.25 4.09 0 2 C0 1.34 0 0.68 0 0 Z " fill="#CEB093" transform="translate(556,113)"/>
<path d="M0 0 C1.98 0.66 3.96 1.32 6 2 C6.33 3.98 6.66 5.96 7 8 C6.01 8 5.02 8 4 8 C0 2 0 2 0 0 Z " fill="#E5BF9A" transform="translate(528,180)"/>
<path d="M0 0 C0.66 1.32 1.32 2.64 2 4 C1.67 4.99 1.34 5.98 1 7 C0.01 6.84 0.01 6.84 -5 6 C-4.01 5.34 -3.02 4.68 -2 4 C-3.65 3.67 -5.3 3.34 -7 3 C-7 2.34 -7 1.68 -7 1 C-5.85 0.84 -5.85 0.84 0 0 Z " fill="#BE9D7F" transform="translate(502,157)"/>
<path d="M0 0 C1.98 0 3.96 0 6 0 C6 0.66 6 1.32 6 2 C6.83 2.33 6.83 2.33 11 4 C11.33 4.66 11.66 5.32 12 6 C6.84 5.51 4.07 4 0 1 C0 0.67 0 0.34 0 0 Z " fill="#CBD1DB" transform="translate(676,309)"/>
<path d="M0 0 C1.32 0.33 2.64 0.66 4 1 C4 10 4 10 2 13 C1.34 8.71 0.68 4.42 0 0 Z " fill="#D3A27E" transform="translate(492,253)"/>
<path d="M0 0 C-0.33 1.65 -0.66 3.3 -1 5 C-1.66 5 -2.32 5 -3 5 C-3 4.34 -3 3.68 -3 3 C-4.98 3.33 -6.96 3.66 -9 4 C-8.67 2.68 -8.34 1.36 -8 0 C-7.34 0 -6.68 0 -6 0 C-4 -1 -4 -1 0 0 Z " fill="#DCBB9A" transform="translate(489,177)"/>
<path d="M0 0 C0.33 0 0.66 0 1 0 C1.33 2.31 1.66 4.62 2 7 C2.66 7.66 3.32 8.32 4 9 C3.34 10.32 2.68 11.64 2 13 C1.67 12.34 1.34 11.68 1 11 C0.01 11 -0.98 11 -2 11 C-1.34 7.37 -0.68 3.74 0 0 Z " fill="#DDB18B" transform="translate(586,169)"/>
<path d="M0 0 C0.91 0.01 1.82 0.02 2.76 0.03 C4.88 0.06 4.88 0.06 5.88 1.06 C5.88 2.71 5.88 4.36 5.88 6.06 C5.22 6.06 4.55 6.06 3.88 6.06 C3.54 4.74 3.22 3.42 2.88 2.06 C-2.88 1.94 -2.88 1.94 -5.12 3.06 C-5.78 2.4 -6.45 1.74 -7.12 1.06 C-4.6 -0.2 -2.81 -0.04 0 0 Z " fill="#DDB897" transform="translate(519.125,173.9375)"/>
<path d="M0 0 C0.33 0 0.66 0 1 0 C1.33 1.98 1.66 3.96 2 6 C2.66 5.34 3.32 4.68 4 4 C4.99 4.33 5.98 4.66 7 5 C6.67 5.16 6.67 5.16 5 6 C5.33 7.98 5.66 9.96 6 12 C4.68 11.34 3.36 10.68 2 10 C1.34 10.99 0.68 11.98 0 13 C0 8.71 0 4.42 0 0 Z " fill="#131313" transform="translate(39,4)"/>
<path d="M0 0 C-0.66 0.66 -1.32 1.32 -2 2 C-9 1 -9 1 -12 -2 C-9 -3 -9 -3 0 0 Z " fill="#263755" transform="translate(649,297)"/>
<path d="M0 0 C-0.51 2.17 -1 4 -2 6 C-3.98 6 -5.96 6 -8 6 C-6.17 1.78 -4.71 0 0 0 Z " fill="#ECC29A" transform="translate(595,163)"/>
<path d="M0 0 C-3.53 3.25 -6.38 3.56 -11 4 C-11.66 5.32 -12.32 6.64 -13 8 C-13 2 -13 2 -12 1 C-2 -1 -2 -1 0 0 Z " fill="#F0C8A4" transform="translate(594,208)"/>
<path d="M0 0 C0.99 0.99 1.98 1.98 3 3 C3 5.97 3 8.94 3 12 C2.34 12 1.68 12 1 12 C0.04 9.12 -0.11 7.3 -0.06 4.31 C-0.05 3.5 -0.04 2.7 -0.04 1.86 C-0.02 1.25 -0.01 0.63 0 0 Z " fill="#D0B291" transform="translate(494,274)"/>
<path d="M0 0 C-1.32 1.32 -2.64 2.64 -4 4 C-6.64 4 -9.28 4 -12 4 C-5.24 -1.31 -5.24 -1.31 0 0 Z " fill="#B9784F" transform="translate(546,222)"/>
<path d="M0 0 C-1.32 1.32 -2.64 2.64 -4 4 C-5.65 4 -7.3 4 -9 4 C-9 3.34 -9 2.68 -9 2 C-10.32 1.67 -11.64 1.34 -13 1 C-8.56 0.13 -4.5 -0.09 0 0 Z " fill="#F4C7A1" transform="translate(553,195)"/>
<path d="M0 0 C1.32 0.66 2.64 1.32 4 2 C1.69 3.32 -0.62 4.64 -3 6 C-3.66 7.65 -4.32 9.3 -5 11 C-5.33 11 -5.66 11 -6 11 C-6 9.02 -6 7.04 -6 5 C-4.02 3.35 -2.04 1.7 0 0 Z " fill="#40342A" transform="translate(591,161)"/>
<path d="M0 0 C0.66 0 1.32 0 2 0 C1 6 1 6 0 7 C-0.33 9.64 -0.66 12.28 -1 15 C-1.33 15 -1.66 15 -2 15 C-3 6 -3 6 0 0 Z " fill="#A6A5A5" transform="translate(588,306)"/>
<path d="M0 0 C5 5 5 5 5 16 C4.67 16 4.34 16 4 16 C4 13.69 4 11.38 4 9 C3.34 9 2.68 9 2 9 C1.34 6.03 0.68 3.06 0 0 Z " fill="#C9A789" transform="translate(559,164)"/>
<path d="M0 0 C2.97 0 5.94 0 9 0 C9 0.66 9 1.32 9 2 C7.68 2 6.36 2 5 2 C5 5.3 5 8.6 5 12 C4.67 12 4.34 12 4 12 C4 8.7 4 5.4 4 2 C2.68 2 1.36 2 0 2 C0 1.34 0 0.68 0 0 Z " fill="#141414" transform="translate(9,73)"/>
<path d="M0 0 C0.66 0 1.32 0 2 0 C0.8 3.08 -0.48 6.06 -2 9 C-3.65 9 -5.3 9 -7 9 C-6.4 8.26 -5.8 7.51 -5.19 6.75 C-3.41 4.53 -1.69 2.28 0 0 Z " fill="#EDDCCE" transform="translate(597,202)"/>
<path d="M0 0 C5 5 5 5 5 8 C3.02 7.34 1.04 6.68 -1 6 C-0.67 4.02 -0.34 2.04 0 0 Z " fill="#E4BB96" transform="translate(528,186)"/>
<path d="M0 0 C2 3 2 3 1 14 C0.01 14 -0.98 14 -2 14 C-1.67 13.01 -1.34 12.02 -1 11 C-0.65 9 -0.31 7 0 5 C-0.66 4.67 -1.32 4.34 -2 4 C-1.34 2.68 -0.68 1.36 0 0 Z " fill="#191919" transform="translate(43,162)"/>
<path d="M0 0 C0.66 0.33 1.32 0.66 2 1 C1.67 4.63 1.34 8.26 1 12 C0.34 12 -0.32 12 -1 12 C-2 4 -2 4 0 0 Z " fill="#191919" transform="translate(11,232)"/>
<path d="M0 0 C-0.66 1.32 -1.32 2.64 -2 4 C-2.24 4.07 -2.24 4.07 -3.46 4.4 C-4.09 4.58 -4.72 4.76 -5.38 4.94 C-6 5.11 -6.63 5.29 -7.27 5.46 C-9 6 -9 6 -11 7 C-9.84 3.51 -9.61 3.74 -6.69 2 C-6.07 1.63 -5.46 1.26 -4.82 0.88 C-3 0 -3 0 0 0 Z " fill="#524233" transform="translate(492,172)"/>
<path d="M0 0 C1.65 0.33 3.3 0.66 5 1 C3.35 2.98 1.7 4.96 0 7 C-0.66 6.67 -1.32 6.34 -2 6 C-2 5.01 -2 4.02 -2 3 C-1.34 3 -0.68 3 0 3 C0 2.01 0 1.02 0 0 Z " fill="#332B24" transform="translate(470,125)"/>
<path d="M0 0 C0.33 0 0.66 0 1 0 C1 2.31 1 4.62 1 7 C-0.65 8.32 -2.3 9.64 -4 11 C-4 6 -4 6 0 0 Z " fill="#494847" transform="translate(451,108)"/>
<path d="M0 0 C0.99 0 1.98 0 3 0 C3 1.98 3 3.96 3 6 C1.35 5.67 -0.3 5.34 -2 5 C-1 1 -1 1 0 0 Z " fill="#1D1D1D" transform="translate(65,9)"/>
<path d="M0 0 C0.33 0.99 0.66 1.98 1 3 C1.99 3 2.98 3 4 3 C4 5.31 4 7.62 4 10 C3.01 10 2.02 10 1 10 C0.67 6.7 0.34 3.4 0 0 Z " fill="#DCC0A4" transform="translate(578,254)"/>
<path d="M0 0 C0.66 0 1.32 0 2 0 C2.33 1.98 2.66 3.96 3 6 C4.32 6.33 5.64 6.66 7 7 C7.33 8.32 7.66 9.64 8 11 C7.34 11 6.68 11 6 11 C5.34 10.34 4.68 9.68 4 9 C3.34 9 2.68 9 2 9 C1.34 6.03 0.68 3.06 0 0 Z " fill="#ECDBCD" transform="translate(477,235)"/>
<path d="M0 0 C2.64 0.33 5.28 0.66 8 1 C8.33 1.99 8.66 2.98 9 4 C3 4 3 4 0 2 C0 1.34 0 0.68 0 0 Z " fill="#BA7D52" transform="translate(501,225)"/>
<path d="M0 0 C0 0.99 0 1.98 0 3 C0.66 3.66 1.32 4.32 2 5 C-0.64 5.33 -3.28 5.66 -6 6 C-5.67 4.68 -5.34 3.36 -5 2 C-3.35 1.34 -1.7 0.68 0 0 Z " fill="#D4AD8A" transform="translate(549,174)"/>
<path d="M0 0 C1.98 0 3.96 0 6 0 C4.81 2.46 3.57 4.76 2 7 C1.34 7 0.68 7 0 7 C0 4.69 0 2.38 0 0 Z " fill="#E9C29C" transform="translate(566,171)"/>
<path d="M0 0 C0.33 0.66 0.66 1.32 1 2 C-0.32 2 -1.64 2 -3 2 C-3 2.99 -3 3.98 -3 5 C-1.68 5 -0.36 5 1 5 C1 5.66 1 6.32 1 7 C-0.98 7 -2.96 7 -5 7 C-5 5.02 -5 3.04 -5 1 C-3.35 0.67 -1.7 0.34 0 0 Z " fill="#191919" transform="translate(16,98)"/>
<path d="M0 0 C0 3.63 0 7.26 0 11 C-0.66 11 -1.32 11 -2 11 C-2.03 10.72 -2.03 10.72 -2.18 9.32 C-2.27 8.6 -2.35 7.87 -2.44 7.12 C-2.52 6.41 -2.6 5.69 -2.68 4.95 C-3 3 -3 3 -4 1 C-2 0 -2 0 0 0 Z " fill="#191919" transform="translate(49,28)"/>
<path d="M0 0 C0.99 0.33 1.98 0.66 3 1 C-1 5 -1 5 -5 6 C-5 5.01 -5 4.02 -5 3 C-3.35 2.01 -1.7 1.02 0 0 Z " fill="#C3CAD4" transform="translate(418,314)"/>
<path d="M0 0 C0.33 0 0.66 0 1 0 C0.67 4.62 0.34 9.24 0 14 C-0.33 14 -0.66 14 -1 14 C-2 4 -2 4 0 0 Z " fill="#D1AF91" transform="translate(473,173)"/>
<path d="M0 0 C0.66 0.33 1.32 0.66 2 1 C1 9 1 9 -1 11 C-1 1 -1 1 0 0 Z " fill="#55402A" transform="translate(509,175)"/>
<path d="M0 0 C0.33 0.66 0.66 1.32 1 2 C1.66 2.33 2.32 2.66 3 3 C2.34 3 1.68 3 1 3 C1 4.98 1 6.96 1 9 C1.66 9.33 2.32 9.66 3 10 C1.68 10 0.36 10 -1 10 C-1.33 7.36 -1.66 4.72 -2 2 C-1.34 2 -0.68 2 0 2 C0 1.34 0 0.68 0 0 Z " fill="#141414" transform="translate(73,6)"/>
<path d="M0 0 C1.15 0.66 1.15 0.66 7 4 C6.34 4.66 5.68 5.32 5 6 C4.17 5.67 4.17 5.67 0 4 C0 2.68 0 1.36 0 0 Z " fill="#2B3954" transform="translate(688,316)"/>
<path d="M0 0 C0 0.99 0 1.98 0 3 C-0.99 3.99 -1.98 4.98 -3 6 C-4.32 6 -5.64 6 -7 6 C-5.49 2.51 -4.06 0 0 0 Z " fill="#334461" transform="translate(463,295)"/>
<path d="M0 0 C0.33 1.32 0.66 2.64 1 4 C-3 6 -3 6 -7 5 C-2.25 1.12 -2.25 1.12 0 0 Z " fill="#314059" transform="translate(474,288)"/>
<path d="M0 0 C0.66 0.16 0.66 0.16 4 1 C4 2.32 4 3.64 4 5 C2.35 5 0.7 5 -1 5 C-0.67 3.35 -0.34 1.7 0 0 Z " fill="#202020" transform="translate(29,215)"/>
<path d="M0 0 C3.44 3.17 5.56 5.43 7 10 C6.01 9.67 5.02 9.34 4 9 C3.67 7.68 3.34 6.36 3 5 C2.01 5 1.02 5 0 5 C0 3.35 0 1.7 0 0 Z " fill="#EDDCCA" transform="translate(455,206)"/>
<path d="M0 0 C0 2.33 0 4.67 0 7 C-0.66 7 -1.32 7 -2 7 C-2 9.64 -2 12.28 -2 15 C-2.33 15 -2.66 15 -3 15 C-3.03 13.42 -3.05 11.83 -3.06 10.25 C-3.07 9.37 -3.09 8.49 -3.1 7.58 C-3.01 5.22 -2.67 3.26 -2 1 C-1.34 0.67 -0.68 0.34 0 0 Z " fill="#CAA686" transform="translate(530,165)"/>
<path d="M0 0 C1.32 0.66 2.64 1.32 4 2 C4 2.99 4 3.98 4 5 C3.01 5.33 2.02 5.66 1 6 C0.01 5.01 -0.98 4.02 -2 3 C-2 2.34 -2 1.68 -2 1 C-1.34 0.67 -0.68 0.34 0 0 Z " fill="#2C2721" transform="translate(457,170)"/>
<path d="M0 0 C0.99 0.66 1.98 1.32 3 2 C2.34 2 1.68 2 1 2 C0.67 4.31 0.34 6.62 0 9 C-1.65 9 -3.3 9 -5 9 C-4.01 8.67 -3.02 8.34 -2 8 C-1.93 7.53 -1.93 7.53 -1.56 5.12 C-1 2 -1 2 0 0 Z " fill="#775D46" transform="translate(527,164)"/>
<path d="M0 0 C0.66 0 1.32 0 2 0 C2 2.64 2 5.28 2 8 C1.67 8.16 1.67 8.16 0 9 C-1.35 6.29 -1.07 3.99 -1 1 C-0.67 0.67 -0.34 0.34 0 0 Z " fill="#32291F" transform="translate(568,127)"/>
<path d="M0 0 C0.33 1.32 0.66 2.64 1 4 C0.34 4.66 -0.32 5.32 -1 6 C-1.99 5.84 -1.99 5.84 -7 5 C-6.59 4.73 -6.18 4.46 -5.75 4.19 C-3.78 2.85 -1.89 1.44 0 0 Z " fill="#E2B993" transform="translate(503,195)"/>
<path d="M0 0 C3.3 0.99 6.6 1.98 10 3 C10 3.33 10 3.66 10 4 C7.36 4.33 4.72 4.66 2 5 C1.34 4.34 0.68 3.68 0 3 C0 2.01 0 1.02 0 0 Z " fill="#765A41" transform="translate(533,189)"/>
<path d="M0 0 C4.29 5.29 4.29 5.29 6 8 C5.67 8.99 5.34 9.98 5 11 C3.02 8.03 1.04 5.06 -1 2 C-0.67 1.34 -0.34 0.68 0 0 Z " fill="#5F462E" transform="translate(527,180)"/>
<path d="M0 0 C0.66 0.66 1.32 1.32 2 2 C2.66 1.34 3.32 0.68 4 0 C3.67 2.64 3.34 5.28 3 8 C2.01 8 1.02 8 0 8 C0 5.36 0 2.72 0 0 Z " fill="#4A3726" transform="translate(581,173)"/>
<path d="M0 0 C1.32 0 2.64 0 4 0 C4 1.65 4 3.3 4 5 C2.35 4.67 0.7 4.34 -1 4 C-0.67 2.68 -0.34 1.36 0 0 Z " fill="#1E1E1E" transform="translate(30,10)"/>
<path d="M0 0 C1.65 0 3.3 0 5 0 C4.34 0.66 3.68 1.32 3 2 C2.67 4.31 2.34 6.62 2 9 C1.34 9 0.68 9 0 9 C0 6.03 0 3.06 0 0 Z " fill="#151515" transform="translate(22,8)"/>
<path d="M0 0 C0.66 0.33 1.32 0.66 2 1 C2 3.31 2 5.62 2 8 C0.68 7.67 -0.64 7.34 -2 7 C-1.34 4.69 -0.68 2.38 0 0 Z " fill="#CFC6B9" transform="translate(584,314)"/>
<path d="M0 0 C0.99 0.33 1.98 0.66 3 1 C1.68 3.64 0.36 6.28 -1 9 C-1.33 9 -1.66 9 -2 9 C-2 3 -2 3 0 0 Z " fill="#F2CBA4" transform="translate(532,312)"/>
<path d="M0 0 C1.32 0.99 2.64 1.98 4 3 C4 3.66 4 4.32 4 5 C1.69 5.33 -0.62 5.66 -3 6 C-2 4 -1 2 0 0 Z " fill="#E1C0A2" transform="translate(455,173)"/>
<path d="M0 0 C4 1 4 1 7 5 C5.68 5 4.36 5 3 5 C2.01 4.01 1.02 3.02 0 2 C0 1.34 0 0.68 0 0 Z " fill="#563F29" transform="translate(500,164)"/>
<path d="M0 0 C0.99 0 1.98 0 3 0 C2 3 2 3 -2 6 C-2.99 6 -3.98 6 -5 6 C-5 5.34 -5 4.68 -5 4 C-4.01 4 -3.02 4 -2 4 C-1.34 2.68 -0.68 1.36 0 0 Z " fill="#F2CAA4" transform="translate(540,304)"/>
<path d="M0 0 C3 4 3 4 3 9 C2.01 8.67 1.02 8.34 0 8 C0 5.36 0 2.72 0 0 Z " fill="#FBE6CC" transform="translate(496,290)"/>
<path d="M0 0 C0.33 0 0.66 0 1 0 C1 10 1 10 -2 14 C-2.33 13.01 -2.66 12.02 -3 11 C-2.67 10.34 -2.34 9.68 -2 9 C-1.34 9 -0.68 9 0 9 C0 6.03 0 3.06 0 0 Z " fill="#7F6349" transform="translate(565,171)"/>
<path d="M0 0 C0.82 0.33 0.82 0.33 5 2 C5.33 3.32 5.66 4.64 6 6 C5.01 6 4.02 6 3 6 C0 2 0 2 0 0 Z " fill="#DDB998" transform="translate(473,187)"/>
<path d="M0 0 C0.36 0 0.36 0 2.17 0.03 C2.44 0.03 2.44 0.03 3.81 0.06 C0.88 1.59 -2.1 2.86 -5.19 4.06 C-5.19 3.4 -5.19 2.74 -5.19 2.06 C-5.85 1.73 -6.51 1.4 -7.19 1.06 C-4.44 0.15 -2.83 -0.05 0 0 Z " fill="#E4C2A2" transform="translate(538.1875,154.9375)"/>
<path d="M0 0 C5.75 1.88 5.75 1.88 8 3 C8 3.66 8 4.32 8 5 C7.01 5.33 6.02 5.66 5 6 C4.67 5.01 4.34 4.02 4 3 C2.68 2.67 1.36 2.34 0 2 C0 1.34 0 0.68 0 0 Z " fill="#E5BA94" transform="translate(496,150)"/>
<path d="M0 0 C0 0.66 0 1.32 0 2 C0.66 2.33 1.32 2.66 2 3 C-0.64 3 -3.28 3 -6 3 C-6.66 2.34 -7.32 1.68 -8 1 C-5.24 0.4 -2.84 0 0 0 Z " fill="#584738" transform="translate(540,148)"/>
<path d="M0 0 C1.32 0.33 2.64 0.66 4 1 C3.34 3.97 2.68 6.94 2 10 C1.67 10 1.34 10 1 10 C0.67 6.7 0.34 3.4 0 0 Z " fill="#362C21" transform="translate(565,118)"/>
<path d="M0 0 C0.99 0 1.98 0 3 0 C2.34 1.98 1.68 3.96 1 6 C0.01 5.01 -0.98 4.02 -2 3 C-1.34 2.01 -0.68 1.02 0 0 Z " fill="#495465" transform="translate(483,282)"/>
<path d="M0 0 C0.99 0 1.98 0 3 0 C3 1.32 3 2.64 3 4 C2.34 4 1.68 4 1 4 C1 5.65 1 7.3 1 9 C-1 5 -1 5 0 0 Z " fill="#D7A882" transform="translate(509,184)"/>
<path d="M0 0 C-2.39 1.89 -4.07 3.02 -7 4 C-7 2.68 -7 1.36 -7 0 C-4 -1 -4 -1 0 0 Z " fill="#E1BE9A" transform="translate(488,173)"/>
<path d="M0 0 C2.64 0 5.28 0 8 0 C6.68 0.33 5.36 0.66 4 1 C3.67 1.99 3.34 2.98 3 4 C2.17 3.67 2.17 3.67 -2 2 C-1.34 1.34 -0.68 0.68 0 0 Z " fill="#D6B295" transform="translate(551,155)"/>
<path d="M0 0 C2.32 2.85 3.75 5.54 5 9 C3.68 8.34 2.36 7.68 1 7 C0.67 4.69 0.34 2.38 0 0 Z " fill="#F9E3C8" transform="translate(500,300)"/>
<path d="M0 0 C-0.33 0.99 -0.66 1.98 -1 3 C-5 2 -5 2 -7 0 C-4 -1 -4 -1 0 0 Z " fill="#374663" transform="translate(455,301)"/>
<path d="M0 0 C1.98 0 3.96 0 6 0 C6.33 1.32 6.66 2.64 7 4 C4.69 3.01 2.38 2.02 0 1 C0 0.67 0 0.34 0 0 Z " fill="#CBD0D9" transform="translate(625,287)"/>
<path d="M0 0 C2.93 0.63 5.36 1.59 8 3 C6.02 3.33 4.04 3.66 2 4 C1.34 2.68 0.68 1.36 0 0 Z " fill="#E4BA94" transform="translate(475,196)"/>
<path d="M0 0 C1.32 0 2.64 0 4 0 C4 0.66 4 1.32 4 2 C4.66 2 5.32 2 6 2 C6 2.99 6 3.98 6 5 C4.68 4.67 3.36 4.34 2 4 C2 3.01 2 2.02 2 1 C1.34 0.67 0.68 0.34 0 0 Z " fill="#E5B993" transform="translate(552,185)"/>
<path d="M0 0 C0.33 1.32 0.66 2.64 1 4 C-0.32 5.32 -1.64 6.64 -3 8 C-3 6.02 -3 4.04 -3 2 C-2.34 2 -1.68 2 -1 2 C-0.67 1.34 -0.34 0.68 0 0 Z " fill="#E8D8CC" transform="translate(454,171)"/>
<path d="M0 0 C0.33 0.99 0.66 1.98 1 3 C0.67 3.5 0.67 3.5 -1 6 C-1.99 6 -2.98 6 -4 6 C-2.85 3.53 -1.95 1.95 0 0 Z " fill="#D7B496" transform="translate(478,166)"/>
<path d="M0 0 C0.33 1.32 0.66 2.64 1 4 C0.01 5.32 -0.98 6.64 -2 8 C-2 5.69 -2 3.38 -2 1 C-1.34 0.67 -0.68 0.34 0 0 Z " fill="#F0C8A5" transform="translate(579,223)"/>
<path d="M0 0 C0.33 0 0.66 0 1 0 C1 1.65 1 3.3 1 5 C-0.65 5 -2.3 5 -4 5 C-2.68 3.35 -1.36 1.7 0 0 Z " fill="#E7BD96" transform="translate(508,190)"/>
<path d="M0 0 C0.82 0.16 0.82 0.16 5 1 C5 2.98 5 4.96 5 7 C2 3 2 3 2 1 C1.34 0.67 0.68 0.34 0 0 Z " fill="#F4CCA7" transform="translate(502,174)"/>
<path d="M0 0 C0.66 0 1.32 0 2 0 C2 1.98 2 3.96 2 6 C0.68 5.67 -0.64 5.34 -2 5 C-1.34 3.35 -0.68 1.7 0 0 Z " fill="#E4BA92" transform="translate(575,170)"/>
<path d="M0 0 C0.66 0.33 0.66 0.33 4 2 C3.34 3.65 2.68 5.3 2 7 C0.54 4.35 0 3.11 0 0 Z " fill="#30261E" transform="translate(581,170)"/>
<path d="M0 0 C0.83 0.33 0.83 0.33 5 2 C5 2.66 5 3.32 5 4 C2.69 3.34 0.38 2.68 -2 2 C-1.34 1.34 -0.68 0.68 0 0 Z " fill="#5F4531" transform="translate(552,169)"/>
<path d="M0 0 C1.32 0.33 2.64 0.66 4 1 C1.69 2.65 -0.62 4.3 -3 6 C-1.12 1.12 -1.12 1.12 0 0 Z " fill="#EEC6A0" transform="translate(536,167)"/>
<path d="M0 0 C0.99 0 1.98 0 3 0 C2.34 1.32 1.68 2.64 1 4 C0.01 4 -0.98 4 -2 4 C-1.34 2.68 -0.68 1.36 0 0 Z " fill="#DADADA" transform="translate(473,79)"/>
<path d="M0 0 C0.33 0.99 0.66 1.98 1 3 C1.66 3 2.32 3 3 3 C2.67 4.32 2.34 5.64 2 7 C1.34 7 0.68 7 0 7 C0 4.69 0 2.38 0 0 Z " fill="#DBD7CE" transform="translate(479,309)"/>
<path d="M0 0 C-0.5 0.5 -0.5 0.5 -3 3 C-3.99 2.01 -4.98 1.02 -6 0 C-4 -1 -4 -1 0 0 Z " fill="#6B513A" transform="translate(502,196)"/>
<path d="M0 0 C2.31 0.66 4.62 1.32 7 2 C7 2.33 7 2.66 7 3 C5.02 3 3.04 3 1 3 C0.67 2.01 0.34 1.02 0 0 Z " fill="#3E2F21" transform="translate(489,178)"/>
<path d="M0 0 C1.67 0 3.33 0 5 0 C5.33 0.99 5.66 1.98 6 3 C4.02 3.33 2.04 3.66 0 4 C0 2.68 0 1.36 0 0 Z " fill="#D2AF8C" transform="translate(480,177)"/>
<path d="M0 0 C1.32 0.33 2.64 0.66 4 1 C3.67 2.32 3.34 3.64 3 5 C2.01 5 1.02 5 0 5 C0 3.35 0 1.7 0 0 Z " fill="#3E3F3E" transform="translate(492,73)"/>
<path d="M0 0 C0.33 0 0.66 0 1 0 C1.33 2.31 1.66 4.62 2 7 C1.01 7.99 0.02 8.98 -1 10 C-0.67 6.7 -0.34 3.4 0 0 Z " fill="#657288" transform="translate(377,388)"/>
<path d="M0 0 C0.83 0.17 0.83 0.17 5 1 C5 1.66 5 2.32 5 3 C3.35 2.67 1.7 2.34 0 2 C0 1.34 0 0.68 0 0 Z " fill="#CDD2DC" transform="translate(634,290)"/>
<path d="M0 0 C0.66 0.16 0.66 0.16 4 1 C3.01 1.99 2.02 2.98 1 4 C0.34 4 -0.32 4 -1 4 C-0.67 2.68 -0.34 1.36 0 0 Z " fill="#AE7048" transform="translate(542,221)"/>
<path d="M0 0 C0.66 0 1.32 0 2 0 C2 1.65 2 3.3 2 5 C1.01 4.67 0.02 4.34 -1 4 C-0.67 2.68 -0.34 1.36 0 0 Z " fill="#C0906B" transform="translate(463,190)"/>
<path d="M0 0 C0.99 0 1.98 0 3 0 C3 0.66 3 1.32 3 2 C3.66 2.33 4.32 2.66 5 3 C3.02 3 1.04 3 -1 3 C-0.67 2.01 -0.34 1.02 0 0 Z " fill="#F5CBA2" transform="translate(517,168)"/>
<path d="M0 0 C0.33 0 0.66 0 1 0 C1.33 2.64 1.66 5.28 2 8 C1.34 8 0.68 8 0 8 C-0.98 4.95 -0.98 3.05 0 0 Z " fill="#C3C2C2" transform="translate(448,150)"/>
<path d="M0 0 C-0.66 0.66 -1.32 1.32 -2 2 C-3.32 2 -4.64 2 -6 2 C-6 1.34 -6 0.68 -6 0 C-4 -1 -4 -1 0 0 Z " fill="#DDB691" transform="translate(485,151)"/>
<path d="M0 0 C1.98 0.99 3.96 1.98 6 3 C5.34 3.66 4.68 4.32 4 5 C2.68 4.34 1.36 3.68 0 3 C0 2.01 0 1.02 0 0 Z " fill="#594735" transform="translate(553,147)"/>
<path d="M0 0 C0.99 0 1.98 0 3 0 C3 1.32 3 2.64 3 4 C1.68 3.67 0.36 3.34 -1 3 C-0.67 2.01 -0.34 1.02 0 0 Z " fill="#202020" transform="translate(34,142)"/>
<path d="M0 0 C0.66 0 1.32 0 2 0 C1.67 1.65 1.34 3.3 1 5 C0.01 4.67 -0.98 4.34 -2 4 C-1.34 2.68 -0.68 1.36 0 0 Z " fill="#C9C5BF" transform="translate(588,306)"/>
<path d="M0 0 C1.98 0.66 3.96 1.32 6 2 C5.01 2.66 4.02 3.32 3 4 C2.01 3.67 1.02 3.34 0 3 C0 2.01 0 1.02 0 0 Z " fill="#364460" transform="translate(643,295)"/>
<path d="M0 0 C1.65 0 3.3 0 5 0 C4.67 1.32 4.34 2.64 4 4 C3.67 3.34 3.34 2.68 3 2 C2.01 1.67 1.02 1.34 0 1 C0 0.67 0 0.34 0 0 Z " fill="#DBBA9A" transform="translate(465,180)"/>
<path d="M0 0 C0.66 0.33 1.32 0.66 2 1 C1.34 2.32 0.68 3.64 0 5 C-0.99 5 -1.98 5 -3 5 C-1.12 1.12 -1.12 1.12 0 0 Z " fill="#5E4936" transform="translate(537,169)"/>
<path d="M0 0 C0.99 0 1.98 0 3 0 C3 1.32 3 2.64 3 4 C2.01 4 1.02 4 0 4 C0 2.68 0 1.36 0 0 Z " fill="#EDC9A4" transform="translate(577,170)"/>
<path d="M0 0 C0.66 0 1.32 0 2 0 C1.34 2.31 0.68 4.62 0 7 C-0.33 7 -0.66 7 -1 7 C-1 1 -1 1 0 0 Z " fill="#342B22" transform="translate(586,165)"/>
<path d="M0 0 C0.99 0.33 1.98 0.66 3 1 C2.5 1.5 2.5 1.5 0 4 C-0.99 3.67 -1.98 3.34 -3 3 C-2.01 2.01 -1.02 1.02 0 0 Z " fill="#362B20" transform="translate(480,120)"/>
<path d="M0 0 C1.65 1.65 3.3 3.3 5 5 C3.68 4.67 2.36 4.34 1 4 C0.67 2.68 0.34 1.36 0 0 Z " fill="#ECC19B" transform="translate(556,115)"/>
<path d="M0 0 C1.32 0.33 2.64 0.66 4 1 C3.67 1.5 3.67 1.5 2 4 C1.34 4 0.68 4 0 4 C0 2.68 0 1.36 0 0 Z " fill="#D5D4D4" transform="translate(463,87)"/>
<path d="M0 0 C0.99 0 1.98 0 3 0 C2.67 1.32 2.34 2.64 2 4 C1.01 3.01 0.02 2.02 -1 1 C-0.67 0.67 -0.34 0.34 0 0 Z " fill="#273A59" transform="translate(474,313)"/>
<path d="M0 0 C0.82 0.17 0.82 0.17 5 1 C4.67 1.66 4.34 2.32 4 3 C2.68 2.67 1.36 2.34 0 2 C0 1.34 0 0.68 0 0 Z " fill="#D2D5DC" transform="translate(463,291)"/>
<path d="M0 0 C1.32 0.33 2.64 0.66 4 1 C4 1.66 4 2.32 4 3 C2.68 3 1.36 3 0 3 C0 2.01 0 1.02 0 0 Z " fill="#B4764B" transform="translate(506,226)"/>
<path d="M0 0 C0.99 0.33 1.98 0.66 3 1 C2.01 1.99 1.02 2.98 0 4 C-0.66 3.01 -1.32 2.02 -2 1 C-1.34 0.67 -0.68 0.34 0 0 Z " fill="#F0C7A1" transform="translate(473,165)"/>
<path d="M0 0 C0.99 0 1.98 0 3 0 C3 0.99 3 1.98 3 3 C1.68 3 0.36 3 -1 3 C-0.67 2.01 -0.34 1.02 0 0 Z " fill="#EBC6A1" transform="translate(592,163)"/>
<path d="M0 0 C0.99 0.33 1.98 0.66 3 1 C2.01 1.99 1.02 2.98 0 4 C-0.66 3.34 -1.32 2.68 -2 2 C-1.34 1.34 -0.68 0.68 0 0 Z " fill="#D8B08D" transform="translate(559,158)"/>
<path d="M0 0 C0.99 0.33 1.98 0.66 3 1 C3 1.99 3 2.98 3 4 C2.01 4.33 1.02 4.66 0 5 C0 3.35 0 1.7 0 0 Z " fill="#251E16" transform="translate(567,123)"/>
<path d="M0 0 C1.32 0.33 2.64 0.66 4 1 C3.67 1.99 3.34 2.98 3 4 C2.34 4 1.68 4 1 4 C0.67 2.68 0.34 1.36 0 0 Z " fill="#2F3E5C" transform="translate(436,307)"/>
<path d="M0 0 C0.66 0 1.32 0 2 0 C2 1.32 2 2.64 2 4 C1.01 4 0.02 4 -1 4 C-0.67 2.68 -0.34 1.36 0 0 Z " fill="#EFECE8" transform="translate(593,283)"/>
<path d="M0 0 C0.66 0 1.32 0 2 0 C1.34 1.32 0.68 2.64 0 4 C-0.66 4 -1.32 4 -2 4 C-1.34 2.68 -0.68 1.36 0 0 Z " fill="#49311B" transform="translate(503,192)"/>
<path d="M0 0 C0.33 0.66 0.66 1.32 1 2 C0.67 2.5 0.67 2.5 -1 5 C-1.66 5 -2.32 5 -3 5 C-1.12 1.12 -1.12 1.12 0 0 Z " fill="#543D26" transform="translate(562,184)"/>
<path d="M0 0 C0.83 0.16 0.83 0.16 5 1 C3.68 1.99 2.36 2.98 1 4 C0.67 2.68 0.34 1.36 0 0 Z " fill="#E1BB97" transform="translate(550,171)"/>
<path d="M0 0 C0.66 0.33 0.66 0.33 4 2 C4 2.66 4 3.32 4 4 C2.68 3.67 1.36 3.34 0 3 C0 2.01 0 1.02 0 0 Z " fill="#E8C19E" transform="translate(508,169)"/>
<path d="M0 0 C0.66 0.33 1.32 0.66 2 1 C1.67 2.65 1.34 4.3 1 6 C0.34 5.01 -0.32 4.02 -1 3 C-0.67 2.01 -0.34 1.02 0 0 Z " fill="#624C35" transform="translate(506,169)"/>
<path d="M0 0 C0.33 0.99 0.66 1.98 1 3 C0.01 2.84 0.01 2.84 -5 2 C-2 0 -2 0 0 0 Z " fill="#B79677" transform="translate(502,161)"/>
<path d="M0 0 C0.66 0.33 0.66 0.33 4 2 C4 2.66 4 3.32 4 4 C2.68 3.67 1.36 3.34 0 3 C0 2.01 0 1.02 0 0 Z " fill="#E3BE9B" transform="translate(572,151)"/>
<path d="M0 0 C0.99 0 1.98 0 3 0 C2.67 1.65 2.34 3.3 2 5 C1.34 4.34 0.68 3.68 0 3 C0 2.01 0 1.02 0 0 Z " fill="#D7B08C" transform="translate(527,151)"/>
<path d="M0 0 C1.65 0 3.3 0 5 0 C4.67 0.99 4.34 1.98 4 3 C2.68 2.34 1.36 1.68 0 1 C0 0.67 0 0.34 0 0 Z " fill="#1E1E1E" transform="translate(33,148)"/>
<path d="M0 0 C0.99 0.33 1.98 0.66 3 1 C2.67 1.66 2.34 2.32 2 3 C1.01 3 0.02 3 -1 3 C-0.67 2.01 -0.34 1.02 0 0 Z " fill="#CFD4DB" transform="translate(418,314)"/>
<path d="M0 0 C0.66 1.32 1.32 2.64 2 4 C0.68 3.67 -0.64 3.34 -2 3 C-1.34 2.01 -0.68 1.02 0 0 Z " fill="#E2B993" transform="translate(562,186)"/>
<path d="M0 0 C0.66 0.99 1.32 1.98 2 3 C1.67 3.66 1.34 4.32 1 5 C0.34 5 -0.32 5 -1 5 C-0.67 3.35 -0.34 1.7 0 0 Z " fill="#D6B493" transform="translate(526,182)"/>
<path d="M0 0 C0.66 0 1.32 0 2 0 C2 0.99 2 1.98 2 3 C0.68 2.67 -0.64 2.34 -2 2 C-1.34 1.34 -0.68 0.68 0 0 Z " fill="#DAB592" transform="translate(589,165)"/>
<path d="M0 0 C0.66 1.32 1.32 2.64 2 4 C1.01 4.33 0.02 4.66 -1 5 C-0.67 3.35 -0.34 1.7 0 0 Z " fill="#E6BA93" transform="translate(504,156)"/>
<path d="M0 0 C0.99 0.33 1.98 0.66 3 1 C1.68 1.99 0.36 2.98 -1 4 C-0.67 2.68 -0.34 1.36 0 0 Z " fill="#3D3B3A" transform="translate(461,94)"/>
<path d="M0 0 C0.99 0 1.98 0 3 0 C2.34 1.32 1.68 2.64 1 4 C0.67 2.68 0.34 1.36 0 0 Z " fill="#E1B892" transform="translate(503,187)"/>
<path d="M0 0 C0.99 0.33 1.98 0.66 3 1 C3 1.66 3 2.32 3 3 C2.01 3 1.02 3 0 3 C0 2.01 0 1.02 0 0 Z " fill="#171717" transform="translate(25,72)"/>
<path d="M0 0 C0.66 0 1.32 0 2 0 C2 0.99 2 1.98 2 3 C1.01 2.67 0.02 2.34 -1 2 C-0.67 1.34 -0.34 0.68 0 0 Z " fill="#CBD1DB" transform="translate(413,317)"/>
<path d="M0 0 C0.99 0.33 1.98 0.66 3 1 C2.34 1.66 1.68 2.32 1 3 C0.67 2.01 0.34 1.02 0 0 Z " fill="#E2B690" transform="translate(554,161)"/>
<path d="M0 0 C0.99 0.33 1.98 0.66 3 1 C2.34 1.66 1.68 2.32 1 3 C0.67 2.01 0.34 1.02 0 0 Z " fill="#DBB38F" transform="translate(475,153)"/>
<path d="M0 0 C0.99 0.33 1.98 0.66 3 1 C2.34 1.66 1.68 2.32 1 3 C0.67 2.01 0.34 1.02 0 0 Z " fill="#D5B79A" transform="translate(560,117)"/>
<path d="M0 0 C0.99 0.33 1.98 0.66 3 1 C2.34 1.66 1.68 2.32 1 3 C0.67 2.01 0.34 1.02 0 0 Z " fill="#C4A98F" transform="translate(556,113)"/>
<path d="M0 0 C0.99 0.33 1.98 0.66 3 1 C2.34 1.66 1.68 2.32 1 3 C0.67 2.01 0.34 1.02 0 0 Z " fill="#D4D4D4" transform="translate(471,81)"/>
</svg>
